<svg width="60" height="60" viewBox="0 0 60 60" fill="none" xmlns="http://www.w3.org/2000/svg">
<path fill-rule="evenodd" clip-rule="evenodd" d="M0.571289 26.3231C0.571289 26.6527 0.66832 26.8702 0.722695 27.0816C1.07707 28.4564 1.83879 29.6362 2.74254 30.7125C4.02973 32.2462 5.60613 33.4809 7.22098 34.642C8.6216 35.6489 10.0508 36.6333 11.4571 37.6327C11.6985 37.8042 11.9268 38.0016 12.1888 38.212C11.9633 38.3339 11.7758 38.4413 11.5808 38.5402C9.72504 39.4814 7.93957 40.5366 6.29379 41.8148C5.30191 42.5855 4.34285 43.4044 3.66551 44.4745C2.57566 46.1958 2.18988 48.0295 3.00223 49.9875C3.23941 50.5594 3.60129 51.0534 4.11176 51.4186C4.27723 51.5367 4.46285 51.6539 4.65645 51.6998C5.15238 51.8166 5.6577 51.893 6.15973 51.9853L7.58145 51.9844C9.15363 51.8442 10.5847 51.3056 11.878 50.4131C13.8993 49.0181 15.261 47.1478 15.8464 44.7473C16.2721 43.0027 16.2894 41.2561 15.7879 39.5194C15.7398 39.3585 15.6845 39.1999 15.6219 39.0441C15.561 38.888 15.4893 38.7361 15.4049 38.5416L18.628 36.6881L18.6763 36.7294C18.6177 36.9211 18.5554 37.1123 18.5024 37.3059C18.1194 38.7047 17.8649 40.1278 17.9563 41.5795C18.0538 43.1264 18.4855 44.5744 19.3911 45.8667C20.1233 46.912 21.868 46.9509 22.6461 45.9019C22.9222 45.5292 23.1899 45.1397 23.391 44.7239C23.9164 43.6388 24.403 42.5344 24.905 41.4375L24.9927 41.2369C24.9566 41.7562 24.9144 42.2123 24.8952 42.6689C24.8652 43.3819 24.9069 44.0906 25.1507 44.7689C25.3593 45.3492 25.7141 45.7828 26.3788 45.8592C26.8335 45.9113 27.1958 45.7031 27.53 45.4392C28.0478 45.0301 28.477 44.5199 28.7914 43.9397C29.6825 42.3033 30.5975 40.6767 31.4052 38.9991C32.2789 37.1845 33.043 35.317 33.8544 33.4716L33.9885 33.1444C34.1802 33.8977 34.3138 34.6355 34.5599 35.3339C34.8458 36.1444 35.1997 36.9356 35.585 37.7048C35.7674 38.0681 35.7463 38.3039 35.4936 38.6086C34.4361 39.8836 33.3969 41.1741 32.3568 42.4631C32.1266 42.7477 31.8974 43.0373 31.7057 43.3481C31.5894 43.5444 31.5129 43.7617 31.4807 43.9875C31.4484 44.1954 31.4979 44.4078 31.6187 44.58C31.7396 44.7522 31.9224 44.871 32.1289 44.9114C32.5457 45.0012 32.973 45.0316 33.3983 45.0019C34.85 44.895 36.1682 44.3855 37.3335 43.522C38.8433 42.4036 39.328 40.8773 38.9624 39.0684C38.8635 38.5777 38.6886 38.1005 38.5185 37.6275C38.4421 37.4142 38.4369 37.2647 38.5761 37.0659C39.7832 35.3423 40.8144 33.5137 41.7735 31.643C41.8114 31.5694 41.8503 31.4958 41.9169 31.417C42.2277 33.0342 42.6955 34.5928 43.5336 36.007C43.1061 36.4191 42.6828 36.7927 42.2999 37.2042C41.4566 38.1108 40.7254 39.0952 40.3438 40.2956C40.1797 40.8131 40.0536 41.3391 40.1268 41.8917C40.2402 42.75 40.9433 43.3078 41.7875 43.1123C43.5941 42.6942 45.1536 41.843 46.2932 40.335C47.06 39.3197 47.1299 38.1872 46.8088 37.0008C46.7207 36.6783 46.6161 36.3609 46.5036 35.9911C46.9494 35.8528 47.3839 35.6869 47.8335 35.5842C50.1674 35.0517 52.476 35.1445 54.725 35.9873C56.038 36.4795 57.0988 37.3031 57.7279 38.5988C58.4961 40.1827 58.0714 41.6855 56.5785 42.6867C56.4393 42.78 56.2799 42.8536 56.1646 42.9703C56.1276 43.0131 56.1 43.0632 56.0835 43.1172C56.0669 43.1713 56.0618 43.2282 56.0685 43.2844C56.0783 43.342 56.2307 43.4142 56.3183 43.4133C56.8091 43.4095 57.2071 43.1522 57.5891 42.8878C58.5463 42.2255 59.2447 41.3344 59.3952 40.1611L59.4247 40.073L59.3886 39.3089C59.3741 39.2648 59.3994 39.2212 59.3961 39.188C59.1927 37.4794 58.28 36.1542 56.9525 35.1155C55.415 33.9131 53.5996 33.4181 51.6796 33.3398C50.1224 33.2728 48.5672 33.5122 47.1022 34.0444C46.6818 34.1967 46.265 34.3772 45.8422 34.5473C45.7855 34.4447 45.7246 34.3463 45.6744 34.2445C45.2404 33.3558 44.7144 32.5064 44.5982 31.4873C44.5157 30.7636 44.4144 30.0408 44.5864 29.325C44.7519 28.6364 44.9675 27.9595 45.1705 27.2803C45.275 26.9306 45.2014 26.7347 44.8677 26.5772C44.7514 26.5192 44.6273 26.4785 44.4993 26.4562C43.6789 26.3372 42.8699 26.4052 42.0754 26.6363C41.7941 26.7183 41.5897 26.8758 41.5274 27.187C41.4918 27.3656 41.4191 27.5367 41.3685 27.713C41.1608 28.4456 41.0136 29.1923 40.678 29.8903C39.8371 31.6411 38.8771 33.3258 37.8946 34.9983C37.7882 35.1788 37.6761 35.3559 37.5421 35.5748C37.1971 34.853 36.8291 34.2052 36.7175 33.4458C36.5914 32.587 36.4921 31.7297 36.7058 30.8775C36.8647 30.2419 37.0724 29.618 37.2636 28.9908C37.3541 28.6927 37.3124 28.5361 37.0424 28.3791C36.906 28.2998 36.7518 28.2295 36.598 28.2066C35.7569 28.0784 34.8974 28.1487 34.0883 28.4119C33.8338 28.4944 33.7002 28.6589 33.6224 28.9214C33.3936 29.6958 33.1986 30.4889 32.8775 31.2253C31.5772 34.2066 30.2394 37.1723 28.903 40.1377C28.6241 40.7569 28.2974 41.3545 27.9828 41.9573C27.9032 42.1102 27.7869 42.2447 27.6875 42.3881C27.6079 42.2939 27.5769 42.2292 27.5774 42.1645C27.5797 41.7834 27.5343 41.3911 27.6069 41.0227C27.83 39.9084 28.0766 38.7989 28.3466 37.695C28.5669 36.7828 28.8233 35.8791 29.0675 34.973C29.1496 34.6697 29.151 34.3861 28.933 34.1311C28.5669 33.7041 27.8019 33.6103 27.3482 33.9394L27.1475 34.0528L27.1864 33.7294C27.2821 33.0361 27.3013 32.3452 27.111 31.6622C26.8738 30.8109 26.2663 30.3211 25.3832 30.3483C24.9716 30.3609 24.5394 30.4312 24.1583 30.5812C22.5557 31.2094 21.3233 32.3217 20.2743 33.66C20.177 33.7843 20.0565 33.8884 19.9194 33.9666C18.5633 34.7184 17.203 35.4609 15.8432 36.2062L14.3296 37.0355C13.9236 36.6483 13.5547 36.2466 13.1361 35.9058C11.8579 34.8633 10.5589 33.8466 9.27176 32.8158C8.13082 31.9022 7.02551 30.9506 6.17988 29.7408C5.55082 28.8408 5.14535 27.8559 5.10645 26.7431C5.05723 25.3252 5.45941 24.0295 6.18129 22.8234C7.10473 21.2803 8.36426 20.0419 9.74895 18.9202C11.2138 17.7342 12.7982 16.7273 14.4402 15.8081C16.7375 14.5223 19.1005 13.3842 21.6341 12.6328C24.2319 11.8622 26.8677 11.4211 29.5864 11.7286C30.6552 11.8495 31.693 12.0942 32.646 12.6169C33.3758 13.0167 33.9744 13.5403 34.2528 14.3587C34.5275 15.1641 34.5191 15.9802 34.3288 16.7981C33.9421 18.4547 33.035 19.8202 31.8936 21.0403C30.0214 23.0405 27.7377 24.4022 25.1666 25.3017C23.6883 25.8196 22.1502 26.1477 20.5893 26.2781C19.31 26.3855 18.0575 26.272 16.8463 25.8272C16.0443 25.5323 15.3458 25.0814 14.7843 24.427C14.6839 24.3098 14.5555 24.1828 14.3685 24.2925C14.1852 24.4003 14.1529 24.5747 14.2143 24.7514C14.3169 25.0448 14.4116 25.3505 14.5714 25.613C14.9732 26.2716 15.5591 26.7492 16.2041 27.1589C17.443 27.9469 18.8277 28.2117 20.2635 28.2731C22.4422 28.3673 24.568 28.042 26.6638 27.4575C29.6558 26.6231 32.2574 25.1494 34.3438 22.8244C36.081 20.8884 37.3218 18.7036 37.5875 16.0655C37.7174 14.7778 37.5791 13.5164 36.9763 12.3417C36.3224 11.0691 35.2827 10.1227 34.0396 9.47063C32.2293 8.52141 30.2755 7.96875 28.2589 7.96875H26.2386C23.7964 7.96875 21.4354 8.66859 19.1404 9.50344C17.4032 10.1358 15.6997 10.882 14.046 11.708C10.4446 13.5075 7.09066 15.6773 4.33582 18.6609C2.96332 20.1473 1.80129 21.7875 1.13285 23.7187C0.931104 24.2953 0.757308 24.8813 0.61207 25.4747M13.6616 42.3558C13.5055 44.4459 12.5582 46.1405 11.0099 47.513C10.1389 48.2845 9.14004 48.8339 7.9766 49.027C7.55473 49.0969 7.12301 49.1138 6.71379 48.9389C6.1302 48.6895 5.99941 48.1716 5.98816 47.6198C5.97082 46.7405 6.27879 45.9455 6.70113 45.1889C7.25238 44.2027 8.06051 43.4508 8.92348 42.7486C10.2829 41.6419 11.7575 40.7053 13.2679 39.8213L13.3818 39.7744C13.6152 40.6369 13.7263 41.4886 13.6616 42.3558ZM25.4544 33.2719C25.3443 33.9394 25.2064 34.6073 25.0114 35.2542C24.3374 37.4934 23.4716 39.6633 22.5355 41.8041C22.3625 42.2002 22.1108 42.5616 21.8919 42.937C21.8547 42.9948 21.8101 43.0474 21.7593 43.0936C21.4883 43.3612 21.2314 43.3472 21.0946 42.997C20.9352 42.5902 20.8372 42.1547 20.7528 41.7239C20.6961 41.4347 20.7097 41.1309 20.6919 40.8347C20.7102 38.7281 21.3529 36.8138 22.4432 35.0316C22.8927 34.2966 23.3821 33.5963 24.1297 33.1313C24.3623 32.9866 24.614 32.8753 24.8774 32.8003C25.2758 32.6883 25.5205 32.8725 25.4544 33.2719ZM33.5 43.5225L36.3918 40.1461C36.5122 41.4 34.3808 43.9031 33.5 43.5225ZM42.7358 41.2505C42.5314 41.3677 42.3088 41.452 42.0993 41.5603C41.9075 41.6597 41.8443 41.5594 41.8386 41.3944C41.8358 41.2802 41.8505 41.1662 41.8822 41.0564C42.2727 39.6792 42.9913 38.5036 44.0605 37.5473L44.1355 37.5089C44.6441 38.9316 44.0563 40.4939 42.7358 41.2505Z" fill="#CB6699"/>
</svg>
