<svg width="60" height="60" viewBox="0 0 60 60" fill="none" xmlns="http://www.w3.org/2000/svg">
<path d="M0 30C0 38.7155 13.4316 45.7814 30 45.7814C46.5684 45.7814 60 38.7155 60 30C60 21.2846 46.568 14.2186 30 14.2186C13.4316 14.2186 0 21.2846 0 30Z" fill="url(#paint0_radial_319_2398)"/>
<path d="M30 44.6096C45.9211 44.6096 58.8281 38.0682 58.8281 30C58.8281 21.931 45.9211 15.3905 30 15.3905C14.0789 15.3905 1.17188 21.931 1.17188 30C1.17188 38.0682 14.0789 44.6096 30 44.6096Z" fill="#777BB3"/>
<path d="M16.2995 31.8113C17.6087 31.8113 18.5856 31.5699 19.2039 31.0941C19.8161 30.6225 20.2384 29.8064 20.4601 28.6683C20.6664 27.6042 20.5876 26.8617 20.2257 26.4605C19.8564 26.0508 19.0572 25.8432 17.8506 25.8432H15.7581L14.5989 31.8113H16.2995ZM9.45622 39.1627C9.40821 39.1626 9.36081 39.1519 9.31742 39.1314C9.27403 39.1108 9.23573 39.0809 9.20526 39.0438C9.17479 39.0067 9.15291 38.9633 9.14119 38.9168C9.12947 38.8702 9.1282 38.8217 9.13747 38.7746L12.2111 22.9599C12.2256 22.8859 12.2653 22.8193 12.3234 22.7714C12.3815 22.7234 12.4545 22.6971 12.5298 22.6969H19.1551C21.2373 22.6969 22.787 23.2622 23.7615 24.3774C24.7403 25.4977 25.0431 27.0652 24.6601 29.0344C24.504 29.8364 24.2359 30.5813 23.8633 31.2488C23.4753 31.9354 22.9804 32.5556 22.397 33.0863C21.6793 33.7575 20.867 34.245 19.9843 34.5314C19.1162 34.8146 18.0006 34.958 16.6703 34.958H13.9872L13.2212 38.8992C13.2068 38.9734 13.167 39.0403 13.1086 39.0883C13.0503 39.1364 12.9771 39.1627 12.9015 39.1627H9.45622Z" fill="black"/>
<path d="M16.0263 26.1684H17.8502C19.3066 26.1684 19.8124 26.4881 19.9844 26.6789C20.269 26.9948 20.3234 27.6619 20.1396 28.6064C19.9338 29.6644 19.5523 30.4148 19.0052 30.8358C18.4455 31.267 17.5343 31.4855 16.2991 31.4855H14.9932L16.0268 26.1689L16.0263 26.1684ZM19.1548 22.3716H12.5299C12.3788 22.3716 12.2325 22.4241 12.1158 22.5201C11.9992 22.6161 11.9196 22.7497 11.8905 22.898L8.81695 38.7131C8.79879 38.8073 8.80167 38.9044 8.82537 38.9973C8.84906 39.0903 8.893 39.1769 8.95403 39.2509C9.01507 39.3249 9.09169 39.3846 9.17844 39.4255C9.26519 39.4665 9.35991 39.4878 9.45585 39.488H12.9012C13.0522 39.4878 13.1985 39.4352 13.3151 39.3391C13.4316 39.243 13.5112 39.1094 13.5401 38.9611L14.2549 35.2833H16.6694C18.0344 35.2833 19.1838 35.1342 20.0852 34.8408C21.0119 34.5398 21.8646 34.0294 22.6193 33.3234C23.2269 32.77 23.7426 32.1233 24.1469 31.4077C24.5365 30.7106 24.8168 29.9325 24.979 29.0963C25.3821 27.023 25.0544 25.3631 24.0059 24.1631C22.9671 22.9739 21.3349 22.3711 19.1548 22.3711V22.3716ZM14.2034 32.1361H16.2991C17.688 32.1361 18.7226 31.875 19.4023 31.3509C20.0824 30.8278 20.5404 29.9541 20.7794 28.7302C21.0068 27.5545 20.9032 26.7253 20.4677 26.242C20.0313 25.7592 19.1594 25.5173 17.8502 25.5173H15.4896L14.2034 32.1361ZM19.1552 23.0213C21.1484 23.0213 22.6019 23.5448 23.516 24.5906C24.4301 25.6369 24.7048 27.097 24.341 28.9716C24.1901 29.7441 23.9365 30.45 23.5793 31.0894C23.2212 31.7297 22.7543 32.3147 22.1773 32.8458C21.4891 33.4894 20.7255 33.9483 19.8841 34.2216C19.0432 34.4953 17.9716 34.6317 16.6699 34.6317H13.7187L12.9016 38.8364H9.45632L12.5304 23.0213H19.1552Z" fill="white"/>
<path d="M32.559 34.958C32.5109 34.958 32.4635 34.9474 32.42 34.927C32.3765 34.9065 32.3381 34.8767 32.3076 34.8396C32.277 34.8026 32.255 34.7592 32.2432 34.7126C32.2314 34.6661 32.2301 34.6175 32.2393 34.5703L33.5987 27.5728C33.7285 26.9072 33.6966 26.43 33.5096 26.2275C33.3947 26.1042 33.0507 25.8975 32.033 25.8975H29.5693L27.8602 34.695C27.8455 34.7691 27.8056 34.8358 27.7472 34.8836C27.6888 34.9315 27.6156 34.9576 27.5401 34.9575H24.1229C24.0749 34.9575 24.0274 34.947 23.984 34.9265C23.9406 34.9061 23.9022 34.8763 23.8716 34.8393C23.841 34.8023 23.819 34.759 23.8071 34.7125C23.7951 34.666 23.7937 34.6175 23.8027 34.5703L26.8768 18.7552C26.8913 18.6811 26.9312 18.6143 26.9895 18.5664C27.0478 18.5184 27.121 18.4922 27.1965 18.4922H30.6137C30.6617 18.4922 30.7091 18.5027 30.7525 18.5232C30.796 18.5436 30.8343 18.5734 30.8649 18.6104C30.8955 18.6474 30.9176 18.6907 30.9295 18.7372C30.9414 18.7837 30.9429 18.8322 30.9338 18.8794L30.1922 22.6969H32.8421C34.861 22.6969 36.2297 23.0522 37.0271 23.7848C37.8394 24.5316 38.0935 25.7255 37.7808 27.3347L36.3507 34.695C36.336 34.769 36.2961 34.8356 36.2378 34.8835C36.1795 34.9314 36.1064 34.9575 36.031 34.9575H32.559V34.958Z" fill="black"/>
<path d="M30.6142 18.1664H27.1965C27.0454 18.1664 26.8989 18.219 26.7823 18.3151C26.6657 18.4112 26.5861 18.5449 26.5571 18.6933L23.4835 34.5079C23.4653 34.6022 23.4681 34.6993 23.4918 34.7923C23.5154 34.8853 23.5594 34.972 23.6204 35.0461C23.6815 35.1201 23.7581 35.1798 23.8449 35.2208C23.9317 35.2618 24.0265 35.2831 24.1224 35.2833H27.5401C27.6912 35.2832 27.8377 35.2306 27.9543 35.1345C28.071 35.0384 28.1506 34.9047 28.1795 34.7564L29.8374 26.2228H32.0321C33.0484 26.2228 33.2621 26.4398 33.2701 26.4497C33.332 26.5153 33.4131 26.8223 33.279 27.5109L31.9196 34.5079C31.9014 34.6022 31.9042 34.6994 31.9279 34.7924C31.9516 34.8855 31.9956 34.9722 32.0567 35.0462C32.1178 35.1203 32.1945 35.18 32.2813 35.221C32.3682 35.2619 32.463 35.2832 32.559 35.2833H36.0315C36.1826 35.2831 36.3289 35.2305 36.4454 35.1344C36.562 35.0383 36.6415 34.9047 36.6704 34.7564L38.1006 27.397C38.4357 25.6692 38.1489 24.3736 37.2474 23.5453C36.3868 22.755 34.9459 22.3711 32.8421 22.3711H30.5874L31.2535 18.9422C31.2719 18.8479 31.2691 18.7507 31.2454 18.6575C31.2218 18.5644 31.1778 18.4777 31.1167 18.4035C31.0556 18.3294 30.9789 18.2697 30.892 18.2287C30.8051 18.1877 30.7102 18.1664 30.6142 18.1664ZM30.6142 18.8179L29.7971 23.0217H32.8421C34.7579 23.0217 36.0798 23.3564 36.8064 24.0248C37.5343 24.6933 37.7518 25.7756 37.4617 27.2733L36.031 34.6322H32.559L33.9189 27.6347C34.0735 26.8387 34.0164 26.2959 33.7478 26.0062C33.4792 25.717 32.9073 25.5722 32.0331 25.5722H29.3007L27.5401 34.6317H24.122L27.196 18.8165H30.6142V18.8179Z" fill="white"/>
<path d="M43.1887 31.8113C44.4979 31.8113 45.4752 31.5699 46.094 31.0941C46.7052 30.6225 47.1281 29.8064 47.3498 28.6683C47.556 27.6042 47.4777 26.8617 47.1154 26.4605C46.746 26.0508 45.9468 25.8432 44.7402 25.8432H42.6482L41.4881 31.8113H43.1887ZM36.3468 39.1627C36.2987 39.1628 36.2512 39.1522 36.2077 39.1317C36.1642 39.1112 36.1258 39.0813 36.0952 39.0442C36.0646 39.0071 36.0427 38.9636 36.0309 38.917C36.0191 38.8704 36.0178 38.8217 36.0271 38.7746L39.1007 22.9599C39.1153 22.8858 39.1551 22.819 39.2134 22.7711C39.2717 22.7231 39.3449 22.6969 39.4204 22.6969H46.0452C48.1274 22.6969 49.6771 23.2622 50.6512 24.3774C51.6304 25.4977 51.9327 27.0652 51.5498 29.0344C51.4034 29.8101 51.1346 30.5576 50.7534 31.2488C50.3653 31.9353 49.8704 32.5555 49.2871 33.0863C48.5699 33.7575 47.7566 34.245 46.8745 34.5314C46.0063 34.8146 44.8907 34.958 43.5599 34.958H40.8773L40.1118 38.8992C40.0973 38.9735 40.0575 39.0404 39.999 39.0885C39.9406 39.1365 39.8673 39.1628 39.7916 39.1627H36.3468Z" fill="black"/>
<path d="M42.9165 26.1684H44.7404C46.1968 26.1684 46.7026 26.4881 46.8741 26.6789C47.1601 26.9948 47.2135 27.6619 47.0302 28.6064C46.824 29.6644 46.4424 30.4148 45.8954 30.8358C45.3352 31.267 44.424 31.4855 43.1893 31.4855H41.8833L42.9165 26.1684ZM46.0449 22.3716H39.4201C39.2691 22.3717 39.1228 22.4242 39.0063 22.5203C38.8897 22.6163 38.8101 22.7498 38.7811 22.898L35.7071 38.7131C35.6889 38.8074 35.6918 38.9045 35.7155 38.9975C35.7393 39.0905 35.7832 39.1771 35.8443 39.2511C35.9054 39.3251 35.9821 39.3847 36.0689 39.4257C36.1557 39.4666 36.2505 39.4879 36.3465 39.488H39.7918C39.9428 39.4878 40.0891 39.4352 40.2057 39.3391C40.3222 39.243 40.4018 39.1094 40.4307 38.9611L41.1455 35.2833H43.5596C44.9241 35.2833 46.074 35.1342 46.9749 34.8408C47.9021 34.5398 48.7547 34.0294 49.5099 33.323C50.1174 32.7696 50.6329 32.1231 51.0371 31.4077C51.4271 30.7106 51.7065 29.9325 51.8691 29.0963C52.2722 27.023 51.9451 25.3631 50.896 24.1631C49.8572 22.9739 48.2255 22.3711 46.0444 22.3711L46.0449 22.3716ZM41.0935 32.1361H43.1888C44.5782 32.1361 45.6122 31.875 46.2929 31.3509C46.9726 30.8278 47.431 29.9541 47.6691 28.7302C47.8974 27.5545 47.7938 26.7253 47.3574 26.242C46.9215 25.7592 46.0491 25.5173 44.7404 25.5173H42.3802L41.0935 32.1361ZM46.0449 23.0213C48.0375 23.0213 49.4921 23.5448 50.4057 24.5906C51.3197 25.6369 51.5949 27.097 51.2302 28.9716C51.0802 29.7441 50.8261 30.45 50.469 31.0894C50.1113 31.7297 49.644 32.3147 49.0665 32.8458C48.3788 33.4894 47.6147 33.9483 46.7733 34.2216C45.9329 34.4953 44.8618 34.6317 43.5596 34.6317H40.6088L39.7908 38.8364H36.3455L39.4196 23.0213H46.0449Z" fill="white"/>
<defs>
<radialGradient id="paint0_radial_319_2398" cx="0" cy="0" r="1" gradientUnits="userSpaceOnUse" gradientTransform="translate(18.0122 19.7668) scale(39.3944)">
<stop stop-color="#AEB2D5"/>
<stop offset="0.3" stop-color="#AEB2D5"/>
<stop offset="0.75" stop-color="#484C89"/>
<stop offset="1" stop-color="#484C89"/>
</radialGradient>
</defs>
</svg>
