<svg width="60" height="60" viewBox="0 0 60 60" fill="none" xmlns="http://www.w3.org/2000/svg">
<g clip-path="url(#clip0_319_2389)">
<path d="M8.19092 48.4107L15.5761 1.1541C15.6203 0.871678 15.7521 0.610293 15.953 0.406861C16.1538 0.203428 16.4135 0.0682295 16.6953 0.0203608C16.9771 -0.0275079 17.2669 0.0143727 17.5236 0.140087C17.7803 0.265802 17.9911 0.468996 18.1261 0.720971L25.7639 14.9663L28.8079 9.16972C28.9237 8.94985 29.0973 8.76577 29.31 8.63735C29.5227 8.50894 29.7665 8.44107 30.015 8.44107C30.2635 8.44107 30.5072 8.50894 30.7199 8.63735C30.9327 8.76577 31.1063 8.94985 31.222 9.16972L51.833 48.4107H8.19092Z" fill="#FFA000"/>
<path d="M33.7045 30.0023L25.7601 14.9592L8.19092 48.4106L33.7045 30.0023Z" fill="#F57C00"/>
<path d="M51.833 48.4107L46.1765 13.4082C46.1346 13.1615 46.0257 12.9311 45.8616 12.7421C45.6976 12.5531 45.4849 12.4129 45.2465 12.3366C45.0082 12.2605 44.7536 12.2514 44.5105 12.3104C44.2674 12.3695 44.0452 12.4943 43.8684 12.6713L8.19092 48.4102L27.9323 59.4811C28.542 59.8215 29.2286 60.0002 29.9269 60.0002C30.6251 60.0002 31.3117 59.8215 31.9214 59.4811L51.833 48.4107Z" fill="#FFCA28"/>
<path d="M46.1765 13.4081C46.1346 13.1614 46.0256 12.931 45.8616 12.742C45.6976 12.5531 45.4848 12.4128 45.2465 12.3365C45.0083 12.2603 44.7536 12.2512 44.5105 12.3102C44.2674 12.3691 44.0453 12.4939 43.8684 12.6708L36.787 19.7709L31.2187 9.16967C31.103 8.9498 30.9294 8.76571 30.7166 8.6373C30.5039 8.50888 30.2602 8.44101 30.0117 8.44101C29.7632 8.44101 29.5194 8.50888 29.3067 8.6373C29.094 8.76571 28.9204 8.9498 28.8046 9.16967L25.7606 14.9658L18.1228 0.720918C17.9876 0.468596 17.7765 0.26519 17.5193 0.139504C17.2621 0.0138176 16.9719 -0.0277787 16.6898 0.0206052C16.4078 0.0687748 16.1481 0.204491 15.9475 0.408516C15.7469 0.61254 15.6157 0.874522 15.5723 1.15732L8.1909 48.4106H8.16699L8.19043 48.4378L8.38496 48.5334L43.8581 13.019C44.035 12.8414 44.2574 12.7159 44.501 12.6564C44.7446 12.5969 44.9998 12.6056 45.2388 12.6817C45.4777 12.7578 45.691 12.8983 45.8552 13.0877C46.0195 13.2771 46.1284 13.5082 46.17 13.7554L51.7785 48.4444L51.8329 48.4101L46.1765 13.4081ZM8.25559 48.3459L15.5756 1.49154C15.6191 1.20867 15.7504 0.946648 15.9511 0.742561C16.1517 0.538474 16.4115 0.402664 16.6936 0.354355C16.9757 0.306085 17.2659 0.347784 17.5231 0.473549C17.7803 0.599315 17.9914 0.802776 18.1265 1.05514L25.7634 15.3004L28.8079 9.50389C28.9237 9.28401 29.0973 9.09993 29.31 8.97152C29.5227 8.8431 29.7665 8.77523 30.015 8.77523C30.2634 8.77523 30.5072 8.8431 30.7199 8.97152C30.9326 9.09993 31.1062 9.28401 31.222 9.50389L36.6773 19.8797L8.25465 48.3459H8.25559Z" fill="white" fill-opacity="0.2"/>
<path opacity="0.2" d="M31.9213 59.1469C31.3117 59.4873 30.6251 59.666 29.9268 59.666C29.2286 59.666 28.5419 59.4873 27.9323 59.1469L8.23775 48.1078L8.18994 48.4111L27.9313 59.4783C28.541 59.8187 29.2276 59.9974 29.9259 59.9974C30.6241 59.9974 31.3108 59.8187 31.9204 59.4783L51.8329 48.4111L51.7813 48.097L31.9204 59.1478L31.9213 59.1469Z" fill="#A52714"/>
</g>
<defs>
<clipPath id="clip0_319_2389">
<rect width="60" height="60" fill="white"/>
</clipPath>
</defs>
</svg>
