<svg width="60" height="60" viewBox="0 0 60 60" fill="none" xmlns="http://www.w3.org/2000/svg">
<path fill-rule="evenodd" clip-rule="evenodd" d="M40.9028 46.9401C40.9821 46.7878 41.058 46.6532 41.1227 46.514C41.1635 46.425 41.2263 46.4072 41.3149 46.4095C41.846 46.4245 42.3771 46.4409 42.9086 46.4461C43.36 46.4507 43.8124 46.4423 44.2642 46.4372C44.7733 46.4311 45.2824 46.4043 45.791 46.4189C46.4683 46.4386 47.1283 46.5712 47.741 46.8726C48.4727 47.2331 49.0263 47.782 49.4036 48.5053C49.6408 48.9639 49.7889 49.4633 49.84 49.9771C49.9206 50.7309 49.8677 51.4673 49.6286 52.1882C49.3324 53.0817 48.7699 53.7656 47.9885 54.2779C47.387 54.6722 46.7275 54.9051 46.0206 55.0382C45.2725 55.1793 44.522 55.1339 43.7716 55.1362C42.9485 55.1395 42.1258 55.1217 41.3027 55.1123C41.1588 55.1109 41.1381 55.0837 41.1761 54.9464L41.2113 54.8198C41.2914 54.5676 41.3345 54.5564 41.5905 54.5142C41.7719 54.4856 41.9454 54.4197 42.1 54.3206C42.1863 54.2634 42.2219 54.1143 42.2556 53.9995C42.2847 53.8992 42.2861 53.789 42.287 53.6831C42.2988 52.0776 42.311 50.4726 42.3175 48.8681C42.3193 48.4623 42.3092 48.0565 42.287 47.6512C42.2711 47.3676 42.1197 47.1736 41.7822 47.1065C41.5197 47.0545 41.2553 47.0142 40.9914 46.9678L40.9028 46.9401ZM48.4385 50.8275C48.4028 50.5078 48.3855 50.1853 48.3283 49.8703C48.1914 49.1142 47.8605 48.4556 47.2792 47.9395C46.3394 47.1056 45.2078 46.9772 44.0219 47.0765C43.7519 47.099 43.6938 47.1914 43.6896 47.4689C43.683 47.8626 43.6764 48.2564 43.676 48.6501C43.6741 49.8989 43.6741 51.1476 43.676 52.3964C43.6764 52.7517 43.6802 53.107 43.6905 53.4614C43.7017 53.8242 43.8335 54.1312 44.1888 54.2718C44.7489 54.4936 45.3381 54.5198 45.926 54.4293C46.8649 54.2854 47.5216 53.7384 47.9622 52.9186C48.311 52.2679 48.4094 51.5578 48.4385 50.8275ZM50.7208 55.0795C50.7095 54.885 50.7892 54.7242 50.8877 54.5765C50.9144 54.5367 51.0063 54.5386 51.0695 54.5259L51.6067 54.4195C51.7966 54.3792 51.8964 54.2517 51.9231 54.0656C51.941 53.9428 51.9578 53.8186 51.9592 53.6943C51.972 52.7114 51.9812 51.7284 51.9869 50.7454C51.9916 49.7611 51.9878 48.7767 51.9878 47.7923L51.9836 47.6043C51.9644 47.2879 51.8116 47.1239 51.4975 47.0775L50.8164 46.9739C50.7325 46.9626 50.702 46.9223 50.7325 46.8478C50.785 46.7207 50.8352 46.589 50.9092 46.4747C50.9369 46.4325 51.0302 46.4161 51.093 46.4175C51.4183 46.4222 51.7436 46.4465 52.0689 46.4461L54.9006 46.4292C55.4463 46.4287 55.9731 46.5239 56.4625 46.785C57.0011 47.0718 57.3025 47.5157 57.3888 48.1204C57.4788 48.7556 57.2861 49.2909 56.822 49.7161C56.6313 49.8914 56.3842 50.0057 56.163 50.1482L56.0908 50.1932C56.2961 50.2687 56.4916 50.3339 56.6819 50.4117C57.2388 50.64 57.6817 50.9967 57.9161 51.5662C58.1013 52.0157 58.1013 52.4845 57.9916 52.9504C57.821 53.6798 57.3405 54.165 56.7156 54.532C56.1292 54.8765 55.4945 55.0772 54.8186 55.1109C54.1952 55.1423 53.5689 55.1306 52.9441 55.1376L52.5822 55.1395C51.98 55.1257 51.3778 55.1107 50.7756 55.0945L50.7208 55.0795ZM53.3163 52.2253H53.3224C53.3224 52.5337 53.3181 52.8422 53.3238 53.1506C53.3275 53.3503 53.3205 53.5556 53.3636 53.7478C53.4283 54.0351 53.5595 54.2943 53.882 54.3768C54.3132 54.4901 54.7636 54.51 55.203 54.435C55.7547 54.3389 56.1949 54.0623 56.4363 53.5368C56.6153 53.1464 56.642 52.7325 56.5806 52.3097C56.4991 51.7528 56.2033 51.3487 55.7116 51.0839C55.3891 50.91 55.045 50.8036 54.6785 50.7895C54.2678 50.774 53.8567 50.7731 53.4461 50.7604C53.3308 50.7572 53.3149 50.8157 53.3153 50.9104C53.3177 51.3482 53.3163 51.7865 53.3163 52.2253ZM54.1905 50.1276C54.415 50.1164 54.6691 50.1131 54.9217 50.0878C55.4055 50.0395 55.7463 49.7962 55.9239 49.3336C56.0144 49.0987 56.0106 48.8568 56.013 48.6126C56.02 47.9765 55.6488 47.4553 55.0445 47.2397C54.5781 47.0732 54.0972 47.0704 53.6135 47.0836C53.4175 47.0887 53.3299 47.1745 53.327 47.3718L53.298 49.9448C53.2966 50.047 53.3406 50.0911 53.44 50.0943L54.1905 50.1276Z" fill="#94795D"/>
<path fill-rule="evenodd" clip-rule="evenodd" d="M4.94183 54.585L4.90761 55.0275C4.58886 55.0275 4.29495 55.0251 4.00104 55.0284C3.44745 55.034 2.89386 55.0429 2.3398 55.0509L2.28636 55.0542C2.20714 55.0448 2.06323 55.0448 2.05948 55.0214C2.03605 54.8897 2.04355 54.7514 2.04964 54.615C2.05011 54.5995 2.10401 54.5798 2.13542 54.5723L2.5662 54.4762C2.83479 54.4064 2.92948 54.2906 2.94214 54.0131C2.95667 53.7004 2.9712 53.3873 2.97261 53.0747C2.97683 52.305 2.97214 51.5362 2.97542 50.7665C2.97589 50.5865 2.91354 50.4525 2.74573 50.3793C2.54632 50.2908 2.34552 50.2055 2.14339 50.1234C2.04776 50.085 1.92354 50.0639 1.93479 49.9354C1.94604 49.8047 2.06651 49.7704 2.17995 49.7447C2.64964 49.6373 3.1198 49.5328 3.58808 49.4184C3.73901 49.3814 3.88339 49.319 4.06386 49.2562C4.07323 49.3537 4.09058 49.4465 4.0887 49.5393L4.06104 49.9804C4.06058 50.0301 4.08636 50.0967 4.12339 50.1243C4.14589 50.1417 4.22136 50.1103 4.25886 50.0812C4.65917 49.7765 5.08292 49.5136 5.5662 49.3603C6.3148 49.1226 6.95745 49.3429 7.40745 49.9884C7.56589 50.2158 7.56636 50.2158 7.7862 50.0569C8.16355 49.7826 8.55823 49.5408 8.9998 49.3814C9.96917 49.0312 10.9006 49.4756 11.2376 50.452C11.3604 50.8064 11.4073 51.1725 11.4064 51.5465L11.3975 54.03C11.397 54.2348 11.465 54.3515 11.66 54.4153C11.8789 54.487 12.1057 54.5362 12.3523 54.6009L12.2951 55.0279C12.0148 55.0279 11.757 55.0261 11.4992 55.0284C10.8692 55.034 10.2392 55.0373 9.60964 55.0518C9.49995 55.0547 9.47136 55.0275 9.46573 54.9248C9.44745 54.5962 9.44464 54.5967 9.75401 54.5226L9.85808 54.4959C10.1604 54.4134 10.2612 54.3206 10.2635 54.014C10.2706 53.1337 10.2889 52.2511 10.2443 51.3726C10.1979 50.4614 9.47464 49.9762 8.59151 50.2097C8.30648 50.2877 8.03804 50.417 7.79933 50.5912C7.71729 50.6498 7.70183 50.7173 7.70839 50.82C7.73323 51.2081 7.7487 51.5967 7.75198 51.9853C7.75761 52.6654 7.74917 53.3456 7.75198 54.0262C7.75292 54.3018 7.84714 54.4073 8.11948 54.4711L8.52401 54.5643L8.59901 54.5812C8.60464 54.7106 8.60979 54.84 8.6037 54.9693C8.59995 55.0504 8.53714 55.0575 8.46683 55.0561C8.07354 55.0462 7.67979 55.0331 7.28651 55.034C6.80792 55.035 6.32979 55.0486 5.85167 55.057H5.73917C5.73917 54.9197 5.73261 54.7884 5.74386 54.6576C5.7462 54.6262 5.80151 54.5822 5.83948 54.5723L6.31104 54.4725C6.5112 54.4233 6.60683 54.3206 6.61808 54.1172C6.67151 53.175 6.70995 52.2323 6.62136 51.2906C6.59977 51.1046 6.54816 50.9234 6.46854 50.7539C6.22714 50.2204 5.68386 49.9978 5.05714 50.1581C4.75948 50.234 4.49089 50.3704 4.23683 50.5425C4.18142 50.5766 4.13592 50.6246 4.10483 50.6818C4.07374 50.7389 4.05816 50.8032 4.05964 50.8683C4.05964 51.8081 4.06292 52.7479 4.06573 53.6873L4.07089 54.0497C4.07651 54.3023 4.18386 54.4354 4.43464 54.4898C4.59589 54.5264 4.75901 54.5512 4.94183 54.585Z" fill="#50382B"/>
<path fill-rule="evenodd" clip-rule="evenodd" d="M33.2816 49.3524C33.3542 49.7058 33.3528 50.0236 33.0931 50.2646C32.8353 50.5041 32.5091 50.4235 32.1908 50.37C32.2203 50.5378 32.2531 50.6803 32.2691 50.8247C32.3848 51.8977 31.9231 52.6941 30.928 53.1493C30.552 53.3208 30.1531 53.3846 29.7458 53.4174C29.5433 53.4333 29.3661 53.588 29.3469 53.7544C29.3272 53.9232 29.4331 54.0966 29.645 54.1472C29.8948 54.2068 30.1555 54.2236 30.4119 54.2532C30.9622 54.316 31.5186 54.3446 32.0623 54.443C32.8845 54.5911 33.3434 55.3088 33.1986 56.1347C33.0697 56.8697 32.6441 57.4046 32.0506 57.8147C31.0508 58.5075 29.9539 58.71 28.7858 58.3566C28.1178 58.1541 27.6467 57.7149 27.4841 57.0043C27.4025 56.6485 27.4892 56.3264 27.7569 56.085C28.0752 55.7991 28.4216 55.5441 28.7548 55.2741L28.8627 55.1658L28.7389 55.0791C28.3991 54.9178 28.1272 54.6971 28.0217 54.3136C27.9856 54.1838 28.0231 54.0985 28.1333 54.0319C28.3208 53.9189 28.5073 53.8041 28.6925 53.6874C28.7797 53.633 28.8659 53.5768 28.947 53.5139C29.0577 53.4296 29.0478 53.3668 28.9156 53.318C28.6081 53.2046 28.3348 53.04 28.123 52.7869C27.7691 52.3646 27.6687 51.8616 27.6978 51.3305C27.7433 50.5008 28.1937 49.9543 28.9259 49.6027C29.7964 49.185 30.6697 49.1588 31.557 49.5394C31.8852 49.68 32.2311 49.71 32.5831 49.6857C32.8461 49.6669 33.0758 49.5675 33.2816 49.3524ZM30.0739 55.2966C29.4205 55.291 29.2156 55.3716 28.8322 55.7621C28.4028 56.1999 28.4052 56.8069 28.8336 57.2466C29.1589 57.5799 29.5648 57.736 30.0163 57.7828C30.5436 57.8372 31.063 57.8152 31.542 57.5513C32.053 57.2686 32.307 56.7436 32.1922 56.2149C32.097 55.7785 31.7755 55.5788 31.3841 55.4639C30.9388 55.3336 30.4784 55.3088 30.0739 55.2966ZM28.7905 51.121C28.8144 51.3024 28.8242 51.4861 28.8645 51.6638C28.9691 52.1241 29.1692 52.5286 29.6272 52.7335C30.1648 52.9749 30.8516 52.8713 31.0869 52.1166C31.2476 51.6144 31.2289 51.0719 31.0339 50.5819C30.9513 50.3579 30.8025 50.1644 30.6073 50.0269C30.1405 49.7011 29.2981 49.658 28.955 50.378C28.8434 50.6119 28.7998 50.8608 28.7905 51.121Z" fill="#4F382B"/>
<path fill-rule="evenodd" clip-rule="evenodd" d="M22.1952 49.2366C22.2125 49.3167 22.2472 49.4076 22.2482 49.4991C22.2496 49.673 22.2308 49.8469 22.221 50.0208V50.1717L22.3682 50.0592C22.7713 49.7273 23.2044 49.4447 23.7088 49.2923C24.6191 49.0181 25.5285 49.5164 25.8252 50.4436C25.9377 50.7961 25.9822 51.1584 25.9864 51.5269C25.9958 52.3453 26.0014 53.1637 26.0099 53.9822C26.0127 54.2761 26.0464 54.3286 26.3244 54.4134C26.4826 54.4607 26.6439 54.4965 26.8072 54.5208C26.8967 54.5348 26.9352 54.57 26.9305 54.6576L26.9314 54.7383C26.9282 55.0772 26.9047 55.0926 26.5761 55.0917C25.7896 55.0903 25.0035 55.095 24.2169 55.1016C23.9825 55.1034 23.9821 55.1105 23.9586 54.8789L23.9539 54.7458C23.9685 54.5461 23.9732 54.548 24.1696 54.5189C24.3017 54.4992 24.433 54.4687 24.5619 54.435C24.6946 54.4008 24.7583 54.3028 24.7761 54.1716C24.785 54.105 24.7967 54.0384 24.7963 53.9719C24.785 53.0775 24.7996 52.1822 24.7508 51.2892C24.7114 50.5669 24.1602 50.1366 23.435 50.1858C23.0855 50.21 22.7495 50.3305 22.4642 50.5341C22.2707 50.6695 22.2317 50.865 22.2327 51.0755C22.2364 51.9117 22.2444 52.748 22.2533 53.5847C22.2552 53.768 22.2603 53.9512 22.2777 54.1331C22.296 54.3319 22.3658 54.412 22.5608 54.4551C22.7474 54.4964 22.9377 54.5203 23.1369 54.5536L23.1538 54.7073C23.1603 55.0659 23.1228 55.0926 22.7746 55.0912C21.9613 55.088 21.148 55.0931 20.3352 55.102C20.2072 55.1039 20.1528 55.0636 20.1561 54.9389L20.1542 54.8855C20.1332 54.5625 20.1425 54.5503 20.4482 54.4978L20.5925 54.4687C20.9235 54.3942 21.0083 54.3061 21.013 53.97C21.0285 52.9055 21.0341 51.8414 21.0449 50.7769C21.0463 50.6241 20.9886 50.5055 20.8461 50.4422C20.6461 50.3546 20.445 50.2696 20.2428 50.1872C20.1313 50.1412 20.0038 50.1122 19.9996 49.958C19.9967 49.8492 20.113 49.7531 20.2719 49.7208C20.5911 49.6561 20.9132 49.6022 21.2286 49.523C21.5427 49.4447 21.8511 49.3397 22.1952 49.2366Z" fill="#4F372B"/>
<path fill-rule="evenodd" clip-rule="evenodd" d="M39.7807 52.0172C39.7657 53.0114 39.5074 53.8153 38.8043 54.4186C37.9136 55.184 36.5243 55.4442 35.3885 54.8719C34.9038 54.6276 34.5476 54.2531 34.3155 53.767C33.9597 53.0194 33.8707 52.2333 34.0563 51.4279C34.2401 50.6315 34.7224 50.0545 35.4443 49.6809C36.1868 49.297 36.9686 49.147 37.7932 49.3486C38.8361 49.6031 39.5857 50.4534 39.7347 51.5362C39.7615 51.7261 39.7718 51.9183 39.7807 52.0172ZM38.5727 52.5558L38.5324 52.5511C38.5324 52.4573 38.5376 52.3636 38.5315 52.2698C38.4972 51.6858 38.366 51.1294 38.0276 50.6404C37.7065 50.1773 37.2691 49.904 36.7001 49.8642C36.063 49.8192 35.5277 50.1755 35.3397 50.8261C35.0576 51.803 35.1532 52.755 35.6491 53.6498C35.8652 54.0398 36.1854 54.3276 36.6143 54.479C37.4547 54.7748 38.2001 54.3919 38.419 53.5312C38.4996 53.2134 38.523 52.8811 38.5727 52.5558Z" fill="#4F382B"/>
<path fill-rule="evenodd" clip-rule="evenodd" d="M19.1338 52.0941C19.1165 52.8075 18.9482 53.467 18.5076 54.0403C18.0355 54.6544 17.3868 54.9825 16.649 55.1208C15.7766 55.2839 14.9572 55.1358 14.2565 54.5503C13.9236 54.2719 13.6963 53.9152 13.5463 53.5092C13.3002 52.8436 13.2388 52.1616 13.3902 51.4664C13.5519 50.7225 13.9719 50.1539 14.623 49.7724C15.3758 49.3322 16.1882 49.1358 17.0558 49.3336C18.1715 49.5886 18.8155 50.3156 19.0536 51.4163C19.1015 51.6384 19.108 51.8681 19.1338 52.0941ZM17.9122 52.5647L17.8799 52.56V52.4259C17.8616 51.7716 17.7336 51.1481 17.3432 50.6044C17.054 50.2008 16.6668 49.9477 16.1704 49.8769C15.3613 49.7616 14.8326 50.2416 14.6572 50.8936C14.4285 51.7453 14.5002 52.5867 14.8541 53.3944C15.0749 53.8978 15.4236 54.2902 15.9594 54.4805C16.7947 54.7772 17.5513 54.3844 17.7627 53.527C17.8405 53.2134 17.864 52.8863 17.9122 52.5647Z" fill="#4F372B"/>
<path fill-rule="evenodd" clip-rule="evenodd" d="M38.607 15.7238C39.1821 17.3864 39.5956 19.0838 39.732 20.8425C39.9007 23.025 39.8238 25.1925 39.3635 27.3389L39.3045 27.5105C39.1601 27.5109 39.0129 27.4927 38.8718 27.5147C37.6798 27.7022 36.4892 27.8963 35.2981 28.0894C34.0667 28.2891 32.8343 28.4808 31.6053 28.6936C31.1698 28.7686 30.6307 28.6791 30.4549 29.2809L30.3706 29.3095L30.4301 25.7105L30.3696 17.0264L30.9434 16.928C31.8813 16.7747 32.8193 16.6186 33.7587 16.4691C34.879 16.2914 36.0003 16.118 37.1215 15.9445C37.6165 15.8686 38.112 15.7978 38.607 15.7238Z" fill="#439934"/>
<path fill-rule="evenodd" clip-rule="evenodd" d="M29.1867 39.802C28.5815 39.2817 27.9553 38.7844 27.3755 38.2369C24.2545 35.2931 21.9712 31.8276 20.8467 27.6497C20.5369 26.5003 20.3306 25.3317 20.264 24.1439C20.2172 23.3123 20.1501 22.4737 20.2092 21.6464C20.3653 19.4466 20.6836 17.2678 21.3286 15.1486L21.3642 15.0994C21.427 15.1828 21.517 15.2569 21.5489 15.3511C22.1789 17.2055 22.8037 19.0617 23.4258 20.9194C25.38 26.7558 27.3319 32.5936 29.2894 38.4291C29.3278 38.543 29.4267 38.6362 29.498 38.7389L29.1867 39.802Z" fill="#45A538"/>
<path fill-rule="evenodd" clip-rule="evenodd" d="M38.6072 15.7238C38.1118 15.7974 37.6163 15.8686 37.1218 15.9446C36.0005 16.118 34.8793 16.2915 33.759 16.4691C32.82 16.6182 31.8821 16.7743 30.9436 16.928L30.3699 17.0265L30.3652 16.6524C30.346 16.3449 30.3141 16.0374 30.3099 15.7299L30.2457 9.84521C30.2307 8.61755 30.2082 7.38989 30.1833 6.1627C30.1707 5.39996 30.1486 4.63741 30.1172 3.87521C30.0985 3.46599 30.0324 3.05864 30.0061 2.64942C29.9907 2.41411 30.0113 2.17692 30.0165 1.94067C30.309 2.50739 30.5954 3.07833 30.8958 3.64083C31.3707 4.53005 32.1277 5.18536 32.8097 5.90021C35.5032 8.72724 37.4152 12.0122 38.6072 15.7238Z" fill="#46A037"/>
<path fill-rule="evenodd" clip-rule="evenodd" d="M30.3711 29.3095L30.4555 29.2809C30.6313 28.6791 31.1703 28.7686 31.6058 28.6936C32.8348 28.4808 34.0672 28.2891 35.2986 28.0894C36.4897 27.8967 37.6803 27.7026 38.8723 27.5147C39.0134 27.4926 39.1606 27.5109 39.305 27.5105C39.0823 28.3055 38.907 29.1178 38.6244 29.8908C38.3033 30.7673 37.9152 31.6233 37.5031 32.4623C36.8859 33.7136 36.1223 34.8871 35.2283 35.9583C34.5411 36.7842 33.7752 37.5487 33.0078 38.303C32.5831 38.7197 32.0834 39.0595 31.6175 39.4345L31.4966 39.352L31.062 38.9808L30.6125 37.9945C30.3054 36.8444 30.1377 35.6615 30.1133 34.4714L30.1217 34.2708L30.1831 33.4017C30.2033 33.105 30.2305 32.8087 30.2431 32.512C30.2881 31.4451 30.3284 30.3773 30.3711 29.3095Z" fill="#409433"/>
<path fill-rule="evenodd" clip-rule="evenodd" d="M30.3713 29.3095C30.3291 30.3773 30.2888 31.4456 30.2433 32.5134C30.2307 32.8106 30.2039 33.1069 30.1833 33.4031L29.9096 33.5067C29.3011 31.7156 28.6922 29.9433 28.0969 28.1667C27.1121 25.2272 26.1394 22.2834 25.156 19.343C24.3618 16.9698 23.5621 14.5986 22.7569 12.2292C22.7189 12.1186 22.6111 12.0314 22.5361 11.9334L24.2893 8.70984C24.3497 8.81437 24.4289 8.91234 24.4669 9.02484C25.2779 11.4248 26.0874 13.8253 26.8899 16.2281C27.9343 19.3547 28.9716 22.4827 30.015 25.6097C30.0568 25.7344 30.1252 25.8497 30.1908 25.9898L30.4308 25.7105L30.3713 29.3095Z" fill="#4FAA41"/>
<path fill-rule="evenodd" clip-rule="evenodd" d="M22.5356 11.9335C22.6111 12.0314 22.7189 12.1186 22.7564 12.2293C23.5617 14.5986 24.3614 16.9699 25.1555 19.343C26.1389 22.2835 27.1116 25.2272 28.0964 28.1668C28.6917 29.9433 29.3006 31.7152 29.9091 33.5068L30.1828 33.4032L30.1214 34.2722L30.0656 34.4724C29.9705 35.4235 29.8903 36.3764 29.7741 37.3257C29.716 37.8014 29.5917 38.2683 29.4975 38.7389C29.4267 38.6363 29.3274 38.543 29.2889 38.4291C27.331 32.5936 25.3796 26.7558 23.4253 20.9194C22.8036 19.062 22.1779 17.2059 21.5485 15.3511C21.5166 15.2569 21.4266 15.1828 21.3638 15.0994L22.5356 11.9335Z" fill="#4AA73C"/>
<path fill-rule="evenodd" clip-rule="evenodd" d="M30.4301 25.7104L30.1901 25.9898C30.1245 25.8496 30.0561 25.7343 30.0144 25.6096C28.9709 22.4826 27.9336 19.3546 26.8892 16.2281C26.0858 13.8256 25.2781 11.4245 24.4662 9.02479C24.4283 8.91229 24.349 8.81432 24.2886 8.70978L26.4565 5.85791C26.525 5.94885 26.6225 6.02994 26.6576 6.1326C27.2595 7.8951 27.8558 9.659 28.4492 11.4243C29.0033 13.0734 29.5489 14.7243 30.1095 16.3706C30.147 16.4807 30.2778 16.5585 30.365 16.6523L30.3697 17.0263L30.4301 25.7104Z" fill="#57AE47"/>
<path fill-rule="evenodd" clip-rule="evenodd" d="M30.365 16.6523C30.2773 16.559 30.147 16.4812 30.1095 16.3706C29.5494 14.7243 29.0033 13.0734 28.4492 11.4243C27.8562 9.65899 27.259 7.89508 26.6576 6.1326C26.6225 6.02995 26.525 5.94885 26.4565 5.85791C27.1615 5.16745 27.8445 4.45213 28.5781 3.79354C29.2301 3.20854 29.7542 2.58135 29.7786 1.65651L29.8301 1.47229L30.0158 1.9401C30.0111 2.17635 29.99 2.41354 30.0054 2.64885C30.0322 3.05807 30.0983 3.46542 30.1165 3.87463C30.1508 4.63635 30.1672 5.39948 30.1826 6.16213C30.2075 7.38932 30.23 8.61698 30.245 9.84463L30.3092 15.7293C30.3139 16.0373 30.3462 16.3448 30.365 16.6523Z" fill="#60B24F"/>
<path fill-rule="evenodd" clip-rule="evenodd" d="M29.4978 38.7385C29.592 38.2678 29.7162 37.801 29.7743 37.3252C29.8906 36.3764 29.9707 35.423 30.0659 34.4719L30.0898 34.4681L30.1132 34.4724C30.1377 35.6625 30.3053 36.8454 30.6124 37.9955C30.5492 38.0789 30.4606 38.1525 30.4268 38.2463C30.1667 38.9803 29.921 39.7205 29.6595 40.4541C29.6238 40.5544 29.5235 40.6327 29.4537 40.7203L29.186 39.8016L29.4978 38.7385Z" fill="#A9AA88"/>
<path fill-rule="evenodd" clip-rule="evenodd" d="M29.4541 40.7208C29.5239 40.6327 29.6243 40.5549 29.6599 40.4546C29.9214 39.721 30.1671 38.9808 30.4272 38.2468C30.4605 38.153 30.5496 38.0794 30.6129 37.996L31.0624 38.9822C30.9738 39.1078 30.851 39.2218 30.8018 39.3619L29.9411 41.8894C29.9055 41.9911 29.785 42.0624 29.7035 42.1482L29.4541 40.7208Z" fill="#B6B598"/>
<path fill-rule="evenodd" clip-rule="evenodd" d="M29.7031 42.1476C29.7842 42.0618 29.9052 41.9906 29.9408 41.8889L30.8014 39.3614C30.8502 39.2212 30.9734 39.1073 31.062 38.9817L31.497 39.3525C31.287 39.5601 31.1703 39.8001 31.2406 40.1034L31.1084 40.5361C31.0484 40.6101 30.9612 40.6748 30.9317 40.7597C30.6312 41.6203 30.3448 42.4856 30.042 43.3458C30.0036 43.4545 29.8972 43.5403 29.8227 43.6368L29.7031 42.1476Z" fill="#C2C1A7"/>
<path fill-rule="evenodd" clip-rule="evenodd" d="M29.8226 43.6364C29.8976 43.5399 30.004 43.4541 30.0419 43.3453C30.3448 42.4852 30.6316 41.6199 30.9316 40.7592C30.9612 40.6744 31.0483 40.6102 31.1083 40.5356L30.926 42.5213C30.8773 42.5775 30.8069 42.6267 30.7835 42.6919L30.1769 44.43C30.1343 44.5486 30.0527 44.6546 29.989 44.7656C29.9323 44.6916 29.831 44.6199 29.8263 44.543C29.8085 44.2421 29.8212 43.9388 29.8226 43.6364Z" fill="#CECDB7"/>
<path fill-rule="evenodd" clip-rule="evenodd" d="M29.9893 44.7661C30.053 44.655 30.1346 44.5491 30.1772 44.4305L30.7838 42.6924C30.8072 42.6267 30.878 42.578 30.9263 42.5217L30.931 43.8249L30.4946 44.9438L29.9893 44.7661Z" fill="#DBDAC7"/>
<path fill-rule="evenodd" clip-rule="evenodd" d="M30.4946 44.9437L30.931 43.8248L31.021 45.1486L30.4946 44.9437Z" fill="#EBE9DC"/>
<path fill-rule="evenodd" clip-rule="evenodd" d="M31.2405 40.1035C31.1707 39.8007 31.2869 39.5607 31.4969 39.3525L31.6179 39.435L31.2405 40.1035Z" fill="#CECDB7"/>
<path fill-rule="evenodd" clip-rule="evenodd" d="M30.1133 34.4728L30.0898 34.4686L30.0659 34.4724L30.1217 34.2722L30.1133 34.4728Z" fill="#4FAA41"/>
</svg>
