<svg width="60" height="60" viewBox="0 0 60 60" fill="none" xmlns="http://www.w3.org/2000/svg">
<g clip-path="url(#clip0_319_2366)">
<path d="M10.6265 22.0312H57.3468V56.5641H10.6265V22.0312Z" fill="white"/>
<path d="M0.703125 29.9578V59.2546H59.2969V0.660889H0.703125V29.9578ZM47.9203 27.614C49.3237 27.9397 50.5992 28.6737 51.5859 29.7234C52.1292 30.2889 52.6014 30.9186 52.9922 31.5984C52.9922 31.6734 50.4609 33.3843 48.9188 34.3406C48.8625 34.3781 48.6375 34.1343 48.3891 33.764C48.1075 33.2782 47.7075 32.8717 47.2264 32.5823C46.7452 32.293 46.1986 32.1303 45.6375 32.1093C43.8609 31.9874 42.7172 32.9203 42.7266 34.4531C42.7119 34.8347 42.7993 35.2133 42.9797 35.5499C43.3688 36.3609 44.0953 36.8437 46.3734 37.8281C50.5687 39.6328 52.3641 40.8234 53.4797 42.5156C54.7266 44.3906 55.0031 47.4187 54.1594 49.6593C53.2219 52.0968 50.925 53.7515 47.6766 54.2999C46.1929 54.4699 44.6938 54.4541 43.2141 54.2531C40.9461 53.8792 38.8569 52.7903 37.2516 51.1453C36.7125 50.5499 35.6625 48.9984 35.7281 48.8859C35.8992 48.7589 36.0794 48.6445 36.2672 48.5437L38.4375 47.3437L40.1203 46.3687L40.4719 46.889C41.0652 47.7377 41.8203 48.4609 42.6938 49.0171C44.5688 50.0015 47.1281 49.8656 48.3937 48.7265C48.8187 48.3091 49.0838 47.7559 49.1429 47.1632C49.202 46.5705 49.0513 45.9758 48.7172 45.4828C48.2484 44.8312 47.3109 44.2828 44.6906 43.139C41.6672 41.8359 40.3641 41.0296 39.1734 39.7453C38.4302 38.8977 37.8814 37.8978 37.5656 36.8156C37.3301 35.5792 37.2953 34.313 37.4625 33.0656C38.0859 30.1453 40.275 28.1062 43.4719 27.5015C44.9524 27.3183 46.4521 27.3594 47.9203 27.6234V27.614ZM34.1672 30.0703V32.4703H26.5594V54.1406H21.1641V32.4656H13.5375V30.1218C13.5137 29.3136 13.5325 28.5047 13.5938 27.6984C13.6313 27.6562 18.2812 27.6562 23.9062 27.6562H34.1391L34.1672 30.0703Z" fill="#007ACC"/>
</g>
<defs>
<clipPath id="clip0_319_2366">
<rect width="60" height="60" fill="white"/>
</clipPath>
</defs>
</svg>
