<svg width="60" height="60" viewBox="0 0 60 60" fill="none" xmlns="http://www.w3.org/2000/svg">
<g clip-path="url(#clip0_319_2363)">
<path d="M0.660156 0.660034H59.3402V59.3405H0.660156V0.660034Z" fill="#F0DB4F"/>
<path d="M54.5379 45.345C54.108 42.668 52.3624 40.4194 47.1916 38.3227C45.3954 37.4972 43.3928 36.9061 42.7961 35.5449C42.5843 34.7527 42.5561 34.3064 42.6902 33.8269C43.075 32.2707 44.9327 31.7855 46.405 32.2318C47.3533 32.5496 48.251 33.2803 48.7924 34.4461C51.3246 32.8064 51.3194 32.8172 53.0875 31.6903C52.4402 30.6868 52.0947 30.2236 51.671 29.7943C50.148 28.0932 48.0728 27.2171 44.7541 27.2841L43.0254 27.5077C41.3688 27.9263 39.79 28.7958 38.8643 29.9616C36.0864 33.1135 36.8786 38.6297 40.2588 40.8999C43.5888 43.3993 48.4807 43.9678 49.1055 46.305C49.7135 49.1663 47.0027 50.0925 44.3083 49.7635C42.3227 49.3505 41.2183 48.3413 40.0244 46.5061C37.8269 47.7778 37.8269 47.7778 35.5675 49.0772C36.1033 50.2486 36.6663 50.7788 37.5644 51.7936C41.815 56.1052 52.4519 55.8933 54.3597 49.3674C54.4371 49.1433 54.9508 47.6489 54.5379 45.345ZM32.5605 27.6296H27.0719L27.0494 41.8196C27.0494 44.8374 27.2055 47.6039 26.7147 48.4519C25.9118 50.1197 23.831 49.913 22.8827 49.5896C21.9175 49.1152 21.4268 48.4407 20.8582 47.4872C20.7021 47.2135 20.5849 47.0016 20.5455 46.9852L16.083 49.718C16.825 51.241 17.9182 52.5628 19.3183 53.4216C21.4099 54.6769 24.221 55.0618 27.161 54.3868C29.0744 53.8294 30.7254 52.6749 31.5897 50.9175C32.8394 48.6136 32.5713 45.825 32.56 42.7407C32.5882 37.7086 32.5605 32.6775 32.5605 27.6296Z" fill="#323330"/>
</g>
<defs>
<clipPath id="clip0_319_2363">
<rect width="60" height="60" fill="white"/>
</clipPath>
</defs>
</svg>
