<svg width="60" height="60" viewBox="0 0 60 60" fill="none" xmlns="http://www.w3.org/2000/svg">
<g clip-path="url(#clip0_319_2379)">
<path d="M53.5841 25.9003C53.5599 25.9002 53.5362 25.9074 53.5161 25.9209L52.4164 26.5631C52.3957 26.5759 52.3787 26.5939 52.3671 26.6152C52.3554 26.6366 52.3495 26.6606 52.3499 26.685V27.9693C52.3499 28.0237 52.3756 28.065 52.4164 28.0921L53.5161 28.7334C53.5363 28.7468 53.5599 28.7539 53.5841 28.7539C53.6083 28.7539 53.6319 28.7468 53.6521 28.7334L54.7499 28.0921C54.7708 28.0791 54.788 28.0609 54.7999 28.0393C54.8118 28.0178 54.818 27.9935 54.8178 27.9689V26.6859C54.818 26.6614 54.8118 26.6374 54.7998 26.616C54.7879 26.5947 54.7707 26.5768 54.7499 26.564L53.6516 25.9214C53.6316 25.908 53.6081 25.9003 53.5841 25.9003ZM29.6342 33.5803C29.4341 33.5803 29.2349 33.629 29.0652 33.7246L23.6516 36.8779C23.478 36.9797 23.3342 37.1252 23.2343 37.2999C23.1345 37.4746 23.0821 37.6723 23.0825 37.8735V44.1656C23.0825 44.5753 23.2991 44.9578 23.6516 45.1631L25.0766 45.9815C25.7685 46.3228 26.0127 46.3218 26.3244 46.3218C27.3416 46.3218 27.9252 45.6942 27.9252 44.6156V38.407C27.9246 38.3638 27.9072 38.3225 27.8768 38.2918C27.8464 38.2611 27.8053 38.2434 27.7621 38.2425H27.0711C27.0277 38.2432 26.9864 38.2608 26.9557 38.2915C26.9251 38.3222 26.9077 38.3636 26.9071 38.407V44.617C26.9071 45.0946 26.406 45.5732 25.6058 45.164L24.1269 44.3039C24.0725 44.2767 24.0449 44.2073 24.0449 44.1529V37.8595C24.0449 37.8051 24.0725 37.7376 24.1269 37.71L29.5386 34.5707C29.5794 34.5435 29.6478 34.5435 29.7022 34.5707L35.1153 37.71C35.1692 37.7376 35.196 37.7915 35.196 37.86V44.1525C35.196 44.2204 35.1692 44.2762 35.1153 44.3034L29.7022 47.4567C29.6614 47.4839 29.593 47.4839 29.5386 47.4567L28.1553 46.6228C28.1146 46.5956 28.0602 46.582 28.0194 46.6092C27.6397 46.8276 27.5731 46.8562 27.2066 46.979C27.125 47.0062 26.9896 47.0601 27.2605 47.2101L29.0652 48.2892C29.2414 48.3843 29.4308 48.4387 29.6342 48.4387C29.8377 48.4387 30.0406 48.3848 30.2033 48.3168L35.6169 45.1635C35.7905 45.0614 35.9344 44.9156 36.0342 44.7406C36.1341 44.5656 36.1864 44.3675 36.186 44.166V37.8735C36.186 37.4639 35.9694 37.0828 35.6169 36.8779L30.2033 33.7246C30.029 33.6288 29.8331 33.5791 29.6342 33.5803ZM38.0858 36.4537C37.808 36.4548 37.542 36.5662 37.3462 36.7633C37.1505 36.9605 37.041 37.2273 37.0419 37.5051C37.0412 37.7829 37.1507 38.0495 37.3464 38.2466C37.5421 38.4436 37.8081 38.5549 38.0858 38.556C38.6563 38.556 39.1302 38.0784 39.1302 37.5051C39.1287 37.228 39.0184 36.9625 38.8231 36.7659C38.6277 36.5693 38.3629 36.4569 38.0858 36.4537ZM38.0717 36.6314C38.1873 36.6299 38.302 36.6515 38.4091 36.6948C38.5163 36.7381 38.6138 36.8022 38.6959 36.8835C38.778 36.9648 38.8432 37.0617 38.8876 37.1684C38.9319 37.2751 38.9547 37.3895 38.9544 37.5051C38.9544 37.9832 38.5606 38.3929 38.0722 38.3929C37.5978 38.3929 37.2041 37.9964 37.2041 37.5051C37.2041 37.0139 37.611 36.6314 38.0717 36.6314ZM37.6925 36.9178V38.1187H37.9241V37.6425H38.1275C38.2091 37.6425 38.2358 37.6696 38.2494 37.7376C38.2494 37.7517 38.2897 38.0517 38.2897 38.106H38.5335C38.5063 38.0517 38.4927 37.8876 38.4791 37.792C38.466 37.642 38.4528 37.5328 38.2897 37.5192C38.3713 37.4915 38.5067 37.4507 38.5067 37.2323C38.5067 36.9182 38.2349 36.9182 38.0999 36.9182L37.6925 36.9178ZM37.8964 37.109H38.0858C38.1542 37.109 38.2621 37.109 38.2621 37.2726C38.2621 37.327 38.2358 37.4371 38.0858 37.4371H37.896L37.8964 37.109ZM31.1136 38.0512C29.5667 38.0512 28.6442 38.7065 28.6442 39.8123C28.6442 41.0001 29.5667 41.3264 31.0456 41.4768C32.8222 41.6545 32.9581 41.9142 32.9581 42.269C32.9581 42.8831 32.4688 43.1428 31.3292 43.1428C29.8911 43.1428 29.5794 42.7875 29.4706 42.0642C29.4706 41.9821 29.4041 41.9282 29.3225 41.9282H28.6171C28.5739 41.9287 28.5328 41.9462 28.5024 41.9768C28.4721 42.0074 28.455 42.0487 28.4549 42.0918C28.4549 43.02 28.9428 44.1121 31.3175 44.1121C33.0261 44.1121 34.0166 43.4287 34.0166 42.2278C34.0166 41.0535 33.2291 40.74 31.5613 40.5215C29.8785 40.3031 29.7027 40.1803 29.7027 39.7846C29.7027 39.457 29.8517 39.0206 31.0996 39.0206C32.2119 39.0206 32.6319 39.2667 32.795 40.0171C32.8032 40.051 32.8222 40.0813 32.8493 40.1033C32.8763 40.1253 32.9097 40.1378 32.9446 40.139H33.6631C33.7044 40.139 33.7452 40.1123 33.7728 40.0851C33.798 40.0489 33.8119 40.006 33.8127 39.9618C33.7044 38.6517 32.8503 38.0512 31.1136 38.0512Z" fill="#5FA04E"/>
<path d="M40.3463 11.5613C40.2886 11.5607 40.2317 11.575 40.1813 11.603C40.1288 11.6336 40.085 11.6772 40.0542 11.7295C40.0234 11.7819 40.0067 11.8413 40.0055 11.9021V20.775C40.0055 20.8566 39.9633 20.9391 39.8822 20.9935C39.8447 21.0136 39.8029 21.0242 39.7603 21.0242C39.7178 21.0242 39.6759 21.0136 39.6385 20.9935L38.2013 20.1615C38.0958 20.101 37.9764 20.0692 37.8549 20.0692C37.7333 20.0692 37.6139 20.101 37.5085 20.1615L31.7578 23.506C31.6514 23.566 31.5627 23.653 31.5008 23.7583C31.4388 23.8636 31.4057 23.9834 31.4049 24.1055V30.7805C31.4049 31.0261 31.5408 31.2586 31.7578 31.3815L37.5094 34.726C37.6148 34.7863 37.7341 34.8181 37.8556 34.8181C37.977 34.8181 38.0964 34.7863 38.2017 34.726L43.9528 31.3815C44.1699 31.2586 44.3058 31.0261 44.3058 30.7805V14.1413C44.3058 13.8821 44.1699 13.6491 43.9528 13.5268L40.5216 11.603C40.4673 11.5758 40.407 11.5615 40.3463 11.5613ZM6.4158 19.8891C6.30752 19.8891 6.19924 19.9285 6.10455 19.9829L0.352989 23.3152C0.244991 23.3768 0.155363 23.4661 0.0933252 23.5739C0.0312877 23.6816 -0.000918572 23.804 1.99402e-05 23.9283L0.0140824 32.8824C0.0140824 33.0057 0.0811137 33.1285 0.189864 33.1833C0.240191 33.2166 0.299204 33.2344 0.359551 33.2344C0.419898 33.2344 0.478912 33.2166 0.529239 33.1833L3.9483 31.2179C4.16533 31.0951 4.29986 30.8626 4.29986 30.6169V26.4263C4.29986 26.1807 4.4358 25.9482 4.6533 25.8254L6.10455 24.9793C6.21283 24.9108 6.33565 24.8836 6.45752 24.8836C6.5794 24.8836 6.70174 24.9108 6.7969 24.9793L8.24815 25.8254C8.46518 25.9482 8.60111 26.1807 8.60111 26.4263V30.6169C8.60111 30.8626 8.73611 31.0951 8.95268 31.2179L12.3446 33.1833C12.3973 33.2167 12.4586 33.2345 12.521 33.2345C12.5835 33.2345 12.6447 33.2167 12.6975 33.1833C12.7514 33.1538 12.7962 33.1102 12.8273 33.0572C12.8583 33.0042 12.8744 32.9438 12.8738 32.8824V23.9283C12.8738 23.6827 12.7378 23.4502 12.5203 23.3269L6.78283 19.9829C6.68635 19.9312 6.58055 19.8991 6.47158 19.8886L6.4158 19.8891ZM53.6035 19.9875C53.4849 19.9875 53.3672 20.0185 53.2585 20.0804L47.506 23.423C47.2889 23.5458 47.1544 23.7783 47.1544 24.0244V30.6994C47.1544 30.945 47.2889 31.1776 47.506 31.3004L53.2172 34.5755C53.32 34.6358 53.4371 34.6676 53.5564 34.6676C53.6756 34.6676 53.7926 34.6358 53.8955 34.5755L57.3549 32.6382C57.4086 32.6086 57.4534 32.565 57.4843 32.512C57.5153 32.459 57.5313 32.3986 57.5306 32.3372C57.5311 32.276 57.515 32.2158 57.4841 32.163C57.4532 32.1102 57.4085 32.0667 57.3549 32.0372L51.5766 28.6922C51.524 28.6614 51.4803 28.6175 51.4495 28.5649C51.4187 28.5123 51.402 28.4527 51.4008 28.3918V26.303C51.4001 26.2418 51.4161 26.1815 51.4471 26.1286C51.4781 26.0758 51.5228 26.0324 51.5766 26.003L53.3813 24.9652C53.4341 24.9318 53.4953 24.9141 53.5578 24.9141C53.6202 24.9141 53.6814 24.9318 53.7342 24.9652L55.5371 26.0025C55.5898 26.0333 55.6338 26.0771 55.6648 26.1297C55.6958 26.1823 55.7129 26.242 55.7142 26.303V27.9413C55.7142 28.0646 55.7817 28.1874 55.89 28.2418C55.9429 28.2753 56.0042 28.2931 56.0667 28.2931C56.1293 28.2931 56.1906 28.2753 56.2435 28.2418L59.6611 26.2355C59.7659 26.1744 59.8526 26.0864 59.9122 25.9808C59.9719 25.8751 60.0023 25.7554 60.0005 25.6341V24.0099C60.0005 23.7643 59.8646 23.5332 59.6611 23.4099L53.9499 20.0799C53.8445 20.0196 53.7253 19.9876 53.6039 19.9871L53.6035 19.9875ZM37.8549 24.9722C37.8853 24.9722 37.9163 24.9793 37.9439 24.9933L39.9099 26.1399C39.9642 26.1671 39.9919 26.2346 39.9919 26.2894V28.5826C39.9919 28.651 39.9642 28.7063 39.9099 28.7335L37.9435 29.8801C37.9159 29.8935 37.8856 29.9005 37.8549 29.9005C37.8242 29.9005 37.7939 29.8935 37.7663 29.8801L35.7999 28.7335C35.7455 28.7063 35.7178 28.6374 35.7178 28.5826V26.2894C35.7178 26.221 35.746 26.1671 35.7999 26.1394L37.7663 24.9933C37.7939 24.9795 37.8239 24.9723 37.8549 24.9722Z" fill="#333333"/>
<path d="M22.4916 20.106C22.3863 20.0457 22.267 20.0139 22.1457 20.0139C22.0243 20.0139 21.905 20.0457 21.7997 20.106L16.0885 23.4234C15.9837 23.4843 15.897 23.5721 15.8374 23.6776C15.7777 23.7831 15.7472 23.9026 15.7491 24.0238V30.6712C15.7491 30.9173 15.885 31.1493 16.0885 31.2721L21.7997 34.589C21.905 34.6494 22.0243 34.6811 22.1457 34.6811C22.267 34.6811 22.3863 34.6494 22.4916 34.589L28.2024 31.2721C28.4194 31.1493 28.5418 30.9173 28.5418 30.6712V24.0238C28.5418 23.7782 28.4058 23.5457 28.2024 23.4234L22.4916 20.106Z" fill="url(#paint0_linear_319_2379)"/>
<path d="M28.2161 23.4234L22.4781 20.1061C22.4218 20.0775 22.3628 20.0547 22.3019 20.0381L15.8716 31.1081C15.926 31.1765 15.9935 31.2309 16.0614 31.2721L21.7999 34.589C21.9625 34.6846 22.1524 34.7118 22.3286 34.657L28.3656 23.5462C28.3259 23.4943 28.2748 23.4523 28.2161 23.4234Z" fill="url(#paint1_linear_319_2379)"/>
<path d="M28.2159 31.2717C28.379 31.1761 28.5009 31.0125 28.5553 30.8349L22.274 20.0241C22.1118 19.9969 21.9351 20.0105 21.786 20.1061L16.0884 23.4094L22.2337 34.6842C22.3148 34.6706 22.4099 34.6435 22.4915 34.6022L28.2159 31.2717Z" fill="url(#paint2_linear_319_2379)"/>
</g>
<defs>
<linearGradient id="paint0_linear_319_2379" x1="24.4713" y1="22.5762" x2="19.2556" y2="33.1502" gradientUnits="userSpaceOnUse">
<stop stop-color="#3F873F"/>
<stop offset="0.33" stop-color="#3F8B3D"/>
<stop offset="0.637" stop-color="#3E9638"/>
<stop offset="0.934" stop-color="#3DA92E"/>
<stop offset="1" stop-color="#3DAE2B"/>
</linearGradient>
<linearGradient id="paint1_linear_319_2379" x1="21.2779" y1="28.1238" x2="35.8304" y2="17.4378" gradientUnits="userSpaceOnUse">
<stop offset="0.138" stop-color="#3F873F"/>
<stop offset="0.402" stop-color="#52A044"/>
<stop offset="0.713" stop-color="#64B749"/>
<stop offset="0.908" stop-color="#6ABF4B"/>
</linearGradient>
<linearGradient id="paint2_linear_319_2379" x1="15.5401" y1="27.3453" x2="28.7553" y2="27.3453" gradientUnits="userSpaceOnUse">
<stop offset="0.092" stop-color="#6ABF4B"/>
<stop offset="0.287" stop-color="#64B749"/>
<stop offset="0.598" stop-color="#52A044"/>
<stop offset="0.862" stop-color="#3F873F"/>
</linearGradient>
<clipPath id="clip0_319_2379">
<rect width="60" height="60" fill="white"/>
</clipPath>
</defs>
</svg>
