<svg width="60" height="60" viewBox="0 0 60 60" fill="none" xmlns="http://www.w3.org/2000/svg">
<path d="M18.9985 36.4781V23.7844H19.6876V25.7813C19.769 25.6928 19.8442 25.5988 19.9126 25.5C20.1942 24.9155 20.6365 24.4234 21.1878 24.0814C21.739 23.7393 22.3764 23.5615 23.0251 23.5688C24.5954 23.5219 25.8704 24.1031 26.6204 25.5C27.0976 26.3678 27.3602 27.3371 27.3863 28.3271C27.4124 29.3171 27.2012 30.299 26.7704 31.1906C26.072 32.7563 24.347 33.5344 22.5001 33.2485C21.9254 33.1995 21.372 33.0074 20.8906 32.6897C20.4091 32.372 20.0149 31.9389 19.7438 31.4297V36.4781H18.9985ZM19.6876 28.275C19.7485 28.8938 19.772 29.3344 19.8423 29.7656C20.1142 31.4625 21.1173 32.4703 22.6923 32.6532C23.4318 32.7747 24.1906 32.6361 24.8394 32.2608C25.4881 31.8856 25.9867 31.297 26.2501 30.5953C26.5528 29.8736 26.6984 29.0958 26.6774 28.3135C26.6564 27.5312 26.4692 26.7623 26.1282 26.0578C25.8471 25.429 25.3689 24.9086 24.766 24.5755C24.1631 24.2423 23.4681 24.1143 22.786 24.211C22.1457 24.2574 21.5357 24.5021 21.0408 24.9113C20.546 25.3204 20.191 25.8735 20.0251 26.4938C19.8783 27.0805 19.7656 27.6753 19.6876 28.275ZM41.4423 30C41.3379 30.8938 40.9124 31.7191 40.2451 32.3227C39.5777 32.9263 38.7139 33.2669 37.8142 33.2813C34.9267 33.4266 33.572 31.5094 33.3563 29.2969C33.2067 28.0954 33.4018 26.8761 33.9188 25.7813C34.2789 25.0303 34.8687 24.4134 35.6027 24.0198C36.3367 23.6263 37.1769 23.4765 38.0017 23.5922C38.7858 23.6587 39.5291 23.9701 40.1264 24.4825C40.7237 24.9948 41.1447 25.682 41.3298 26.4469C41.4765 27.1435 41.5845 27.8477 41.6532 28.5563H34.0642C33.9235 30.5625 35.0017 32.175 36.5298 32.5641C38.4329 33.0328 40.0595 32.2078 40.6501 30.3985C40.7813 29.9344 41.0204 29.8688 41.4423 30ZM34.0642 27.9141H40.847C40.8048 25.7766 39.4735 24.2297 37.6688 24.2063C35.6251 24.1735 34.1532 25.6641 34.0642 27.9141ZM42.8392 30.0469H43.5048C43.5294 30.5367 43.6885 31.0102 43.9647 31.4154C44.2409 31.8206 44.6235 32.1419 45.0704 32.3438C45.6316 32.5963 46.2425 32.719 46.8577 32.7028C47.4729 32.6866 48.0765 32.5318 48.6235 32.25C48.9217 32.1156 49.1714 31.893 49.3391 31.6122C49.5067 31.3314 49.5842 31.0059 49.561 30.6797C49.5782 30.3651 49.4923 30.0535 49.3163 29.7921C49.1404 29.5307 48.884 29.3338 48.586 29.2313C47.8548 28.9594 47.0767 28.8094 46.3313 28.5703C45.5559 28.3495 44.7976 28.0722 44.0626 27.7406C42.8626 27.1547 42.7876 24.8719 44.147 24.15C44.843 23.7572 45.6264 23.545 46.4255 23.5327C47.2247 23.5204 48.0142 23.7085 48.722 24.0797C49.1507 24.3167 49.4971 24.6787 49.7148 25.1176C49.9326 25.5564 50.0114 26.0512 49.9407 26.536H49.3689C49.3689 26.5078 49.3173 26.4844 49.3173 26.4563C49.247 24.6328 47.7188 24.0703 46.0782 24.2297C45.5885 24.2901 45.1128 24.4344 44.672 24.6563C44.4072 24.7774 44.1865 24.9777 44.0404 25.2296C43.8943 25.4815 43.83 25.7725 43.8563 26.0625C43.8572 26.3527 43.9477 26.6354 44.1155 26.8721C44.2834 27.1087 44.5203 27.2877 44.7938 27.3844C45.5157 27.6469 46.2704 27.8156 47.011 28.0219C47.6063 28.186 48.2251 28.2938 48.8017 28.4906C49.2086 28.624 49.5654 28.8779 49.8249 29.2186C50.0844 29.5592 50.2343 29.9707 50.2548 30.3985C50.3244 30.8671 50.2445 31.3458 50.0266 31.7666C49.8086 32.1873 49.4637 32.5287 49.0407 32.7422C47.4751 33.6281 44.897 33.3938 43.7485 32.2735C43.4575 31.9807 43.2273 31.6333 43.0712 31.2511C42.9151 30.869 42.8362 30.4597 42.8392 30.0469ZM58.6923 26.536H58.0688C58.0688 26.4516 58.036 26.3766 58.0267 26.3063C58.0165 25.839 57.8462 25.3893 57.5441 25.0326C57.242 24.6759 56.8266 24.4338 56.3673 24.3469C55.5007 24.0983 54.5763 24.1428 53.7376 24.4735C53.4061 24.5685 53.1142 24.7682 52.9056 25.0428C52.6969 25.3174 52.5826 25.652 52.5798 25.9969C52.5681 26.3356 52.6737 26.6679 52.8787 26.9378C53.0836 27.2076 53.3754 27.3985 53.7048 27.4781C54.6423 27.7688 55.6032 27.9469 56.5548 28.2094C56.8631 28.2834 57.1668 28.3758 57.4642 28.486C57.9082 28.6448 58.294 28.9339 58.5711 29.3155C58.8482 29.6971 59.0037 30.1534 59.0174 30.6248C59.0311 31.0962 58.9022 31.5607 58.6477 31.9577C58.3932 32.3547 58.0248 32.6657 57.5907 32.85C56.9292 33.1504 56.2123 33.3093 55.4858 33.3166C54.7593 33.3238 54.0394 33.1793 53.372 32.8922C52.8232 32.6555 52.36 32.2564 52.0449 31.7485C51.7298 31.2406 51.5778 30.6484 51.6095 30.0516H52.2188C52.3316 30.5955 52.5752 31.1037 52.9286 31.5322C53.282 31.9607 53.7345 32.2966 54.247 32.5109C54.7595 32.7251 55.3164 32.8112 55.8697 32.7616C56.4229 32.7121 56.9557 32.5284 57.422 32.2266C57.706 32.079 57.9418 31.8531 58.1013 31.5756C58.2608 31.2981 58.3374 30.9807 58.322 30.661C58.3361 30.3462 58.2472 30.0353 58.0687 29.7756C57.8902 29.5159 57.6319 29.3215 57.3329 29.2219C56.6017 28.95 55.8235 28.8047 55.0782 28.5656C54.2983 28.3482 53.5353 28.0741 52.7954 27.7453C51.6235 27.1688 51.5298 24.9047 52.8657 24.1828C53.5704 23.7736 54.3691 23.5537 55.1839 23.5447C55.9988 23.5357 56.8021 23.7377 57.5157 24.1313C57.9238 24.3749 58.2523 24.7319 58.4612 25.1588C58.6701 25.5858 58.7504 26.0642 58.6923 26.536ZM17.8595 33.0516C17.614 33.1445 17.3431 33.1443 17.0978 33.051C16.8525 32.9578 16.6499 32.7779 16.5282 32.5453C15.7642 31.4016 14.9204 30.3094 14.1095 29.1938L13.7579 28.725C12.7923 30.0188 11.8267 31.261 10.9454 32.55C10.8306 32.7723 10.6389 32.9452 10.4061 33.0366C10.1732 33.128 9.91512 33.1317 9.67979 33.0469L13.3032 28.186L9.93291 23.7938C10.1755 23.7062 10.4409 23.705 10.6843 23.7904C10.9277 23.8758 11.1342 24.0425 11.2688 24.2625C12.0517 25.4063 12.9188 26.4985 13.7813 27.6563C14.6485 26.5078 15.5063 25.411 16.3079 24.2766C16.4234 24.058 16.6151 23.8894 16.8468 23.803C17.0784 23.7166 17.3337 23.7183 17.5642 23.8078L16.2563 25.5422C15.6704 26.3156 15.0938 27.0938 14.4845 27.8485C14.4354 27.8924 14.3961 27.9463 14.3692 28.0064C14.3423 28.0666 14.3284 28.1318 14.3284 28.1977C14.3284 28.2636 14.3423 28.3288 14.3692 28.3889C14.3961 28.4491 14.4354 28.5029 14.4845 28.5469C15.6048 30.0328 16.7157 31.5235 17.8595 33.0516ZM33.2438 23.7469V24.4031C32.7698 24.3721 32.2944 24.4407 31.8485 24.6047C31.4026 24.7687 30.996 25.0243 30.655 25.3552C30.314 25.686 30.0461 26.0847 29.8687 26.5254C29.6914 26.9662 29.6084 27.4393 29.6251 27.9141V33.0703H28.9548V23.7844H29.611V25.6875C30.422 24.3 31.6735 23.7844 33.2438 23.7469ZM0.998535 28.125C1.09697 27.6563 1.15791 27.1453 1.29385 26.6672C2.10479 23.7844 5.40947 22.5844 7.68291 24.3703C9.01416 25.4156 9.34697 26.8969 9.28135 28.5656H1.78135C1.65947 31.5469 3.81104 33.3469 6.5626 32.4281C7.00894 32.2685 7.4085 32.0002 7.72521 31.6475C8.04192 31.2948 8.2658 30.8687 8.37666 30.4078C8.52197 29.9391 8.75635 29.8594 9.20166 29.9953C9.12831 30.566 8.92654 31.1126 8.61152 31.5941C8.29651 32.0755 7.87644 32.4793 7.38291 32.775C6.56747 33.2209 5.63192 33.3976 4.71002 33.2797C3.78813 33.1619 2.92711 32.7555 2.2501 32.1188C1.58033 31.3657 1.17535 30.4142 1.09697 29.4094C1.09697 29.25 1.03604 29.0906 1.00322 28.9406C1.0001 28.6625 0.998535 28.3906 0.998535 28.125ZM1.79072 27.9235H8.57353C8.53135 25.7625 7.16728 24.2297 5.34854 24.2156C3.32353 24.1875 1.8751 25.6875 1.78604 27.9141L1.79072 27.9235Z" fill="black"/>
</svg>
