<svg width="60" height="60" viewBox="0 0 60 60" fill="none" xmlns="http://www.w3.org/2000/svg">
<g clip-path="url(#clip0_319_2375)">
<path d="M30 0C22.0435 0 14.4129 3.16071 8.7868 8.7868C3.16071 14.4129 0 22.0435 0 30C0 37.9565 3.16071 45.5871 8.7868 51.2132C14.4129 56.8393 22.0435 60 30 60C35.9282 59.9883 41.7201 58.2205 46.6444 54.9197L22.0378 23.1281V41.9897H18V18H23.0475L49.8248 52.4925C53.0194 49.6798 55.5789 46.2194 57.3333 42.3414C59.0876 38.4634 59.9966 34.2564 60 30C60 22.0435 56.8393 14.4129 51.2132 8.7868C45.5871 3.16071 37.9565 0 30 0ZM38.333 18H42.3333V40.8638L38.333 35.6109V18ZM49.6673 52.65L49.6153 52.695C49.6327 52.68 49.65 52.665 49.6673 52.65Z" fill="black"/>
</g>
<defs>
<clipPath id="clip0_319_2375">
<rect width="60" height="60" fill="white"/>
</clipPath>
</defs>
</svg>
