<svg width="60" height="60" viewBox="0 0 60 60" fill="none" xmlns="http://www.w3.org/2000/svg">
<path d="M0 42.8029H1.98844V34.9528L5.06625 41.7956C5.42859 42.6253 5.925 42.9164 6.90094 42.9164C7.87687 42.9164 8.35313 42.6253 8.71547 41.7956L11.7933 34.9528V42.8025H13.7817V34.9659C13.7817 34.2004 13.4761 33.8306 12.8442 33.6403C11.3334 33.1696 10.3209 33.576 9.86156 34.596L6.84234 41.3507L3.91828 34.596C3.47906 33.576 2.44641 33.1696 0.9375 33.6403C0.305625 33.8306 0 34.2004 0 34.9659L0 42.8029ZM15.4359 36.4125H17.4225V40.7376C17.4042 40.972 17.4975 41.5232 18.5869 41.5415H22.9102V36.3904H24.9023C24.9117 36.3904 24.8986 43.4142 24.8986 43.4437C24.9094 45.1757 22.7508 45.5512 21.7547 45.5807H15.4781V44.2439L21.7659 44.242C23.0456 44.1084 22.8937 43.4709 22.8937 43.2585V42.7368H18.6694C16.703 42.7185 15.4523 41.8598 15.4359 40.8726C15.4341 40.7831 15.4781 36.4565 15.4359 36.4125Z" fill="#00618A"/>
<path d="M26.4331 42.803H32.1495C32.8179 42.803 33.4681 42.6619 33.9842 42.4205C34.8448 42.0267 35.2639 41.4905 35.2639 40.7892V39.337C35.2639 38.7638 34.7876 38.2275 33.8501 37.8722C33.3537 37.68 32.7406 37.5792 32.149 37.5792H29.7392C28.9372 37.5792 28.5547 37.3374 28.4595 36.803C28.4412 36.7388 28.4412 36.6877 28.4412 36.6234V35.7188C28.4412 35.6677 28.4412 35.6161 28.4595 35.5524C28.5547 35.1459 28.7651 35.0306 29.472 34.9664L29.6642 34.9538H35.3403V33.63H29.7598C28.9578 33.63 28.5369 33.6811 28.1539 33.795C26.9694 34.1649 26.4528 34.7508 26.4528 35.7708V36.93C26.4528 37.8216 27.4653 38.587 29.1664 38.7647L29.7397 38.7905H31.805C31.8819 38.7905 31.9569 38.7905 32.0155 38.8031C32.6455 38.8542 32.9126 38.9695 33.1048 39.1988C33.2037 39.2902 33.2604 39.4205 33.2567 39.5541V40.7152C33.2567 40.8544 33.1615 41.0339 32.9712 41.1858C32.7992 41.3395 32.5119 41.4403 32.1308 41.4661L31.9203 41.4788H26.4331V42.803ZM47.6661 40.4958C47.6661 41.8599 48.6804 42.6235 50.7237 42.7772L51.2989 42.803H56.479V41.4774H51.2605C50.0942 41.4774 49.6545 41.1844 49.6545 40.4831V33.6272H47.6679V40.4953L47.6661 40.4958ZM36.5333 40.5652V35.8392C36.5333 34.6397 37.3775 33.9113 39.0434 33.682C39.2212 33.6564 39.4005 33.6435 39.5801 33.6436H43.3522C43.5444 33.6436 43.7164 33.6563 43.909 33.682C45.5754 33.9108 46.4178 34.6397 46.4178 35.8392V40.5652C46.4178 41.5392 46.0606 42.0595 45.2351 42.3999L47.1945 44.167H44.8854L43.3015 42.7369L41.7069 42.8377H39.5811C39.186 42.8363 38.793 42.7807 38.4129 42.6727C37.1478 42.3286 36.5342 41.6639 36.5342 40.5652H36.5333ZM38.6792 40.4499C38.6792 40.5141 38.6975 40.5778 38.7176 40.6552C38.8329 41.2045 39.3495 41.5102 40.1347 41.5102H41.9403L40.2814 40.0125H42.5905L44.037 41.3199C44.3042 41.1769 44.4781 40.9608 44.5404 40.6809C44.5587 40.6167 44.5587 40.553 44.5587 40.4888V35.9569C44.5587 35.9058 44.5587 35.8416 44.5404 35.7774C44.4251 35.2664 43.9086 34.9734 43.1417 34.9734H40.1351C39.2544 34.9734 38.6797 35.3559 38.6797 35.9569L38.6792 40.4499Z" fill="#E48E00"/>
<path d="M58.2279 31.4283C57.0068 31.3955 56.0726 31.5089 55.2743 31.846C55.0474 31.9411 54.6846 31.943 54.648 32.2271C54.7727 32.3588 54.7929 32.5547 54.8918 32.7141C55.0821 33.0235 55.4046 33.4355 55.6919 33.6516L56.6641 34.3472C57.2609 34.7114 57.9293 34.9205 58.5063 35.2847C58.8452 35.5008 59.1818 35.7717 59.5132 36.0155C59.6763 36.1346 59.786 36.323 60.0002 36.398V36.3633C59.8887 36.2203 59.8591 36.0244 59.7565 35.8763L59.3041 35.4239C58.863 34.838 58.3024 34.3233 57.7057 33.8949C57.2294 33.5541 56.1677 33.0928 55.968 32.5397L55.9333 32.505C56.2704 32.4685 56.666 32.3456 56.9754 32.2631C57.499 32.1221 57.9658 32.1586 58.5044 32.0194L59.2352 31.8089V31.6716C58.9624 31.3913 58.7684 31.0214 58.4698 30.7669C57.6935 30.106 56.8437 29.4431 55.9685 28.89C55.4834 28.5844 54.8848 28.3866 54.3701 28.1264C54.198 28.0388 53.8938 27.9947 53.7785 27.848C53.5094 27.5039 53.3627 27.068 53.1541 26.6667L51.9035 24.0263C51.6401 23.4239 51.4676 22.8286 51.138 22.2886C49.5616 19.6941 47.8624 18.1285 45.2308 16.5905C44.6726 16.2628 43.9966 16.1344 43.2865 15.9661L42.1385 15.8967C41.906 15.7978 41.6641 15.5124 41.4448 15.375C40.5734 14.8238 38.3374 13.6266 37.691 15.2011C37.2846 16.1953 38.3009 17.1656 38.6651 17.6696C38.9196 18.023 39.2473 18.4186 39.4287 18.8156C39.5496 19.0758 39.5698 19.3374 39.6724 19.6139C39.9251 20.295 40.1449 21.0347 40.4726 21.6647C40.6376 21.9835 40.8185 22.3186 41.0276 22.6022C41.1555 22.7761 41.3754 22.8549 41.4101 23.1239C41.1959 23.4244 41.1832 23.8894 41.0623 24.27C40.5185 25.9819 40.7234 28.1096 41.5146 29.3785C41.7565 29.7666 42.3274 30.6014 43.113 30.2813C43.7998 30.001 43.646 29.1352 43.8419 28.3697C43.8879 28.1977 43.8602 28.0692 43.9465 27.9539V27.9886L44.5727 29.2392C45.0358 29.9846 45.8562 30.7627 46.5523 31.2881C46.9146 31.561 47.1987 32.0335 47.6655 32.1928V32.1563H47.6308C47.5394 32.0171 47.3984 31.9585 47.283 31.845C47.0102 31.5778 46.7079 31.2464 46.4848 30.9403C45.851 30.0816 45.2908 29.1403 44.7818 28.1606C44.538 27.6938 44.3257 27.1772 44.1209 26.7014C44.0421 26.5181 44.044 26.2402 43.879 26.1464C43.654 26.4942 43.3226 26.7764 43.1482 27.1885C42.8698 27.8456 42.8351 28.6496 42.7305 29.4811L42.6612 29.5158C42.1779 29.3986 42.0073 28.9008 41.8282 28.4738C41.3721 27.3933 41.2882 25.6519 41.689 24.4088C41.7916 24.0867 42.2604 23.0719 42.0701 22.7756C41.9805 22.4789 41.6819 22.3069 41.5151 22.08C41.2969 21.7758 41.1105 21.45 40.9587 21.1078C40.5869 20.2636 40.413 19.3191 40.0212 18.4674C39.8346 18.0591 39.5177 17.6471 39.2576 17.2847C38.9684 16.8839 38.6459 16.5891 38.4227 16.1035C38.344 15.9314 38.2362 15.6549 38.3533 15.4772C38.3899 15.3581 38.4448 15.3089 38.5619 15.2705C38.7635 15.1149 39.3255 15.3216 39.5341 15.4078C40.0924 15.6403 40.5579 15.8602 41.0299 16.1733C41.2549 16.3233 41.4841 16.6144 41.7588 16.695H42.0719C42.5608 16.8066 43.1084 16.7278 43.5663 16.8671C44.374 17.1122 45.0991 17.4952 45.7544 17.911C47.7574 19.1742 49.3948 20.9742 50.5151 23.1221C50.6965 23.468 50.7733 23.7975 50.9327 24.1641C51.2533 24.9038 51.656 25.6655 51.9748 26.3888C52.2935 27.1121 52.6029 27.8391 53.0515 28.4396C53.2877 28.7546 54.2013 28.9228 54.6152 29.0986C54.9063 29.2214 55.3826 29.3494 55.6573 29.5163C56.1846 29.8331 56.6937 30.21 57.1882 30.5583C57.4333 30.7341 58.1918 31.1152 58.2302 31.4278L58.2279 31.4283ZM42.6949 18.1899C42.4847 18.1863 42.2749 18.2096 42.0705 18.2592V18.2939H42.1052C42.2262 18.5447 42.4404 18.706 42.5904 18.9202L42.9382 19.6491L42.9729 19.6163C43.189 19.4644 43.286 19.2206 43.286 18.8508C43.1984 18.7594 43.1871 18.646 43.1121 18.5377C43.0132 18.3928 42.8215 18.3127 42.6949 18.1899Z" fill="#00618A"/>
</svg>
