<svg width="60" height="60" viewBox="0 0 60 60" fill="none" xmlns="http://www.w3.org/2000/svg">
<path d="M17.0529 25.1437C17.0529 25.875 17.1316 26.4679 17.2709 26.9015C17.4284 27.3356 17.6262 27.81 17.9023 28.3228C17.9993 28.4803 18.0396 28.6378 18.0396 28.777C18.0396 28.9729 17.9205 29.1707 17.6646 29.3681L16.421 30.1978C16.2434 30.315 16.0657 30.3754 15.9087 30.3754C15.7109 30.3754 15.513 30.2765 15.3152 30.0989C15.0498 29.8125 14.8118 29.5017 14.6046 29.1707C14.385 28.791 14.1811 28.4024 13.9934 28.0059C12.4549 29.8223 10.5199 30.7307 8.19023 30.7307C6.5332 30.7307 5.21133 30.2564 4.24289 29.3095C3.27586 28.3612 2.7832 27.0979 2.7832 25.5192C2.7832 23.842 3.37477 22.4798 4.57992 21.4546C5.78273 20.4271 7.38117 19.9143 9.41555 19.9143C10.0859 19.9143 10.7759 19.9729 11.5062 20.0718C12.2374 20.1707 12.9879 20.3282 13.7773 20.5059V19.065C13.7773 17.565 13.4604 16.5196 12.8491 15.9084C12.2163 15.2967 11.1509 15 9.63117 15C8.9407 15 8.23055 15.0787 7.49977 15.2564C6.77421 15.4292 6.06193 15.6537 5.36836 15.9281C5.05148 16.0654 4.81523 16.1442 4.67789 16.1845C4.53914 16.2229 4.44023 16.2431 4.36148 16.2431C4.08492 16.2431 3.94758 16.0453 3.94758 15.6318V14.6648C3.94758 14.3479 3.98602 14.1117 4.08492 13.9729C4.18336 13.8356 4.36148 13.6982 4.63805 13.559C5.32805 13.2037 6.15773 12.9075 7.1243 12.6707C8.09133 12.4143 9.11836 12.2957 10.204 12.2957C12.5515 12.2957 14.269 12.8282 15.3752 13.8942C16.4609 14.9596 17.0121 16.5782 17.0121 18.75V25.1437H17.0529ZM9.04008 28.1451C9.69023 28.1451 10.362 28.0261 11.0726 27.7898C11.7832 27.5517 12.4146 27.1181 12.9476 26.5265C13.2626 26.1515 13.5007 25.7371 13.6179 25.2632C13.737 24.7889 13.8157 24.2179 13.8157 23.5453V22.7179C13.2178 22.571 12.612 22.4585 12.0012 22.3809C11.3853 22.3032 10.7652 22.2641 10.1445 22.2637C8.82258 22.2637 7.85555 22.5201 7.20352 23.0531C6.55336 23.5856 6.23695 24.3346 6.23695 25.3218C6.23695 26.25 6.4732 26.9404 6.96727 27.4143C7.44164 27.907 8.13211 28.1451 9.04008 28.1451ZM24.888 30.2765C24.5327 30.2765 24.2965 30.2179 24.139 30.0787C23.9796 29.9596 23.8423 29.685 23.7232 29.31L19.0854 14.0531C18.9682 13.6579 18.9073 13.4015 18.9073 13.2623C18.9073 12.9473 19.0652 12.7701 19.3821 12.7701H21.3157C21.6907 12.7701 21.9471 12.8282 22.0863 12.9675C22.2438 13.0846 22.3629 13.3612 22.4801 13.7362L25.796 26.8031L28.8757 13.7367C28.9732 13.3429 29.0923 13.0851 29.2493 12.9679C29.4087 12.8484 29.6852 12.7696 30.0405 12.7696H31.6188C31.9938 12.7696 32.2507 12.8282 32.4082 12.9675C32.5657 13.0846 32.7049 13.3612 32.7832 13.7362L35.9018 26.9606L39.3166 13.7367C39.4338 13.3429 39.573 13.0851 39.7104 12.9679C39.8679 12.8484 40.1262 12.7696 40.481 12.7696H42.3157C42.6326 12.7696 42.8102 12.9271 42.8102 13.2623C42.8102 13.3607 42.7901 13.4601 42.7699 13.5792C42.7498 13.6982 42.7113 13.8557 42.6326 14.0714L37.8757 29.3296C37.7566 29.7234 37.6193 29.9798 37.4599 30.0984C37.3024 30.2179 37.046 30.2967 36.7109 30.2967H35.014C34.6385 30.2967 34.3821 30.2357 34.2246 30.0989C34.0652 29.9596 33.9279 29.7032 33.8491 29.3095L30.7896 16.5782L27.7498 29.2893C27.6513 29.685 27.5341 29.9414 27.3748 30.0787C27.2168 30.2179 26.9407 30.2765 26.5854 30.2765H24.888ZM50.2498 30.8095C49.2246 30.8095 48.1971 30.6904 47.2104 30.4542C46.2232 30.2179 45.4545 29.9596 44.9416 29.6648C44.6248 29.4871 44.4087 29.2898 44.3299 29.1117C44.2521 28.9376 44.2116 28.7492 44.2109 28.5586V27.5517C44.2109 27.1382 44.3684 26.9404 44.6656 26.9404C44.7827 26.9404 44.9013 26.9606 45.0204 27.0009C45.1376 27.0393 45.3152 27.1181 45.5126 27.1968C46.2103 27.5032 46.9384 27.7352 47.6848 27.8887C48.4737 28.0462 49.2429 28.125 50.0337 28.125C51.2773 28.125 52.2438 27.907 52.9141 27.4734C53.5859 27.0393 53.9412 26.4075 53.9412 25.5984C53.9412 25.0453 53.7635 24.5929 53.4087 24.2175C53.0534 23.8425 52.3812 23.5068 51.4146 23.1904L48.5524 22.3021C47.1115 21.8479 46.0455 21.1781 45.3959 20.2898C44.7443 19.4203 44.4087 18.4532 44.4087 17.4281C44.4087 16.5984 44.5868 15.8681 44.9416 15.2362C45.294 14.6013 45.7785 14.0493 46.3624 13.6176C46.954 13.1653 47.6262 12.8282 48.4156 12.592C49.2045 12.3557 50.0337 12.2568 50.9018 12.2568C51.3359 12.2568 51.7896 12.277 52.2237 12.3356C52.6779 12.3942 53.0918 12.4729 53.5071 12.5517C53.9009 12.6506 54.2763 12.7495 54.6316 12.8686C54.987 12.9876 55.2635 13.1048 55.4613 13.2239C55.7379 13.3814 55.9352 13.5389 56.0524 13.7161C56.1715 13.8754 56.2301 14.092 56.2301 14.3681V15.2962C56.2301 15.7106 56.0726 15.9281 55.7759 15.9281C55.6184 15.9281 55.362 15.8479 55.0273 15.6904C53.9009 15.1776 52.6376 14.9212 51.237 14.9212C50.1124 14.9212 49.2246 15.0989 48.6129 15.4743C47.9993 15.8479 47.6848 16.4212 47.6848 17.2303C47.6848 17.7834 47.8821 18.2573 48.2759 18.6309C48.6715 19.0059 49.4023 19.3818 50.4476 19.7165L53.2507 20.6048C54.672 21.059 55.6976 21.6904 56.3088 22.5C56.9205 23.3095 57.2173 24.2376 57.2173 25.2632C57.2173 26.1126 57.0391 26.8818 56.7045 27.5517C56.3491 28.2239 55.8748 28.8154 55.2635 29.2893C54.6518 29.782 53.921 30.1373 53.0735 30.3956C52.1852 30.6703 51.2571 30.8095 50.2498 30.8095Z" fill="#252F3E"/>
<path d="M55.3127 34.3819C53.2352 34.4115 50.7827 34.8751 48.9279 36.1782C48.3546 36.5921 48.4535 37.1447 49.0854 37.066C51.1985 36.8096 55.8541 36.2569 56.6838 37.3224C57.5135 38.3677 55.7576 42.7693 54.9668 44.724C54.7305 45.3146 55.2433 45.5532 55.7758 45.099C59.2493 42.1782 60.1577 36.0793 59.4471 35.191C59.0922 34.7574 57.3902 34.3519 55.3127 34.3819ZM0.764276 35.559C0.329745 35.6133 0.13287 36.1383 0.591776 36.5532C8.3299 43.5385 18.5726 47.7432 29.9416 47.7432C38.0533 47.7432 47.4869 45.1979 53.9796 40.4026C55.0451 39.6113 54.1188 38.4085 53.0327 38.9007C45.7512 41.9804 37.8354 43.4804 30.6321 43.4804C19.9549 43.4804 9.63209 40.5399 1.26349 35.6837C1.08068 35.5754 0.909589 35.5412 0.764745 35.559H0.764276Z" fill="#FF9900"/>
</svg>
