<svg width="60" height="60" viewBox="0 0 60 60" fill="none" xmlns="http://www.w3.org/2000/svg">
<g clip-path="url(#clip0_319_2419)">
<path fill-rule="evenodd" clip-rule="evenodd" d="M30.0443 59.1676C46.1107 59.1432 59.1166 46.074 59.1166 29.9527C59.1166 14.0935 46.1707 1.03224 30.7043 0.756151C14.4611 0.466463 0.888009 13.6468 0.88379 29.6297C0.879103 46.073 13.8269 59.191 30.0443 59.1676ZM29.9969 2.17037C45.4221 2.16521 57.7122 14.6977 57.7075 30.4266C57.7024 45.2762 45.0864 57.6985 30.0082 57.7018C14.6468 57.7051 2.29332 45.2504 2.29379 29.7605C2.29473 14.6701 14.8404 2.17553 29.9969 2.17037ZM18.355 16.8263C18.6072 17.6668 17.9013 17.9593 17.1508 18.0179C16.361 18.0788 15.5716 18.1383 14.6547 18.2082C17.681 27.2241 20.6618 36.1065 23.7133 45.1955C23.9308 44.8397 24.0204 44.7394 24.0597 44.6222C25.735 39.6151 27.4197 34.6111 29.0524 29.5899C29.2014 29.1319 29.1274 28.5254 28.9643 28.0547C28.1004 25.561 27.0654 23.1216 26.3079 20.5979C25.7899 18.8701 25.1027 17.7521 23.0604 17.9522C22.7125 17.9865 22.2879 17.2379 21.8983 16.8512C22.3694 16.5699 22.8372 16.0524 23.3125 16.0454C27.4714 15.9815 31.6309 15.9827 35.7897 16.0491C36.2669 16.0571 36.7347 16.5882 37.2058 16.8765C36.7933 17.2533 36.4375 17.8187 35.9552 17.9644C35.1813 18.1979 34.323 18.1538 33.3968 18.2363L42.4666 45.2176C43.8405 40.6538 45.1188 36.4632 46.3619 32.2618C47.471 28.5113 46.81 25.0088 44.8047 21.7055C44.2019 20.7122 43.4613 19.7485 43.1196 18.6652C42.7314 17.4329 42.409 16.0299 42.6147 14.7938C42.964 12.699 44.5713 11.6588 46.7463 11.4596C34.8438 0.413026 16.1397 4.3674 9.2477 16.3697C11.9008 16.2474 14.4339 16.0866 16.9689 16.0519C17.448 16.0458 18.2425 16.4508 18.355 16.8263ZM23.0974 53.3752C23.0421 53.5369 23.0388 53.7169 22.9952 53.9855C28.1247 55.4077 33.1554 55.3051 38.3041 53.5702L30.4385 32.0265C27.9213 39.3441 25.5072 46.3585 23.0974 53.3752ZM19.1336 52.4011L7.28316 19.8933C1.93707 30.3361 6.00395 46.269 19.1336 52.4011ZM54.9593 31.5127C55.3352 26.5749 53.6318 19.7382 52.1608 18.7979C51.9968 20.6143 52.1111 22.6351 51.5899 24.4763C50.3632 28.8146 48.8632 33.0774 47.4185 37.3519C45.8482 41.9982 44.216 46.6233 42.6105 51.2579C50.1536 46.7865 54.2988 40.1869 54.9593 31.5127Z" fill="#494949"/>
</g>
<defs>
<clipPath id="clip0_319_2419">
<rect width="60" height="60" fill="white"/>
</clipPath>
</defs>
</svg>
