<svg width="100%" height="100%" viewBox="0 0 60 60" fill="none" xmlns="http://www.w3.org/2000/svg">
<path d="M49.7857 8H11.2042C9.43638 8 8 9.45647 8 11.2444V49.7556C8 51.5435 9.43638 53 11.2042 53H49.7857C51.5536 53 53 51.5435 53 49.7556V11.2444C53 9.45647 51.5536 8 49.7857 8ZM21.6004 46.5714H14.9308V25.096H21.6105V46.5714H21.6004ZM18.2656 22.1629C16.1261 22.1629 14.3984 20.4252 14.3984 18.2958C14.3984 16.1663 16.1261 14.4286 18.2656 14.4286C20.3951 14.4286 22.1328 16.1663 22.1328 18.2958C22.1328 20.4353 20.4051 22.1629 18.2656 22.1629ZM46.6016 46.5714H39.9319V36.125C39.9319 33.6339 39.8817 30.4297 36.4665 30.4297C32.9911 30.4297 32.4587 33.1417 32.4587 35.9442V46.5714H25.7891V25.096H32.1875V28.029H32.2779C33.1719 26.3415 35.3516 24.5636 38.596 24.5636C45.346 24.5636 46.6016 29.0134 46.6016 34.7991V46.5714Z" fill="currentColor"/>
</svg>
