<svg width="current" height="current" viewBox="0 0 60 60" fill="none" xmlns="http://www.w3.org/2000/svg">
<rect x="7.5" y="7.5" width="45" height="45" rx="4" fill="white"/>
<rect x="8.3999" y="8.40002" width="43.2" height="43.2" rx="4" fill="#0D131A"/>
<path d="M28.7794 16.94C31.366 16.94 33.4994 17.26 35.1794 17.9C36.8594 18.5133 38.1127 19.46 38.9394 20.74C39.766 21.9933 40.1794 23.58 40.1794 25.5C40.1794 26.8067 39.926 27.9533 39.4194 28.94C38.9394 29.9 38.286 30.7267 37.4594 31.42C36.6594 32.0867 35.7927 32.6333 34.8594 33.06L43.2594 45.5H36.5394L29.7394 34.54H26.4994V45.5H20.4594V16.94H28.7794ZM28.3394 21.9H26.4994V29.62H28.4594C29.7927 29.62 30.8727 29.4733 31.6994 29.18C32.526 28.8867 33.126 28.4467 33.4994 27.86C33.8727 27.2467 34.0594 26.5133 34.0594 25.66C34.0594 24.7533 33.846 24.0333 33.4194 23.5C33.0194 22.94 32.3927 22.54 31.5394 22.3C30.7127 22.0333 29.646 21.9 28.3394 21.9Z" fill="white"/>
</svg>
