<svg width="100%" height="100%" viewBox="0 0 61 60" fill="none" xmlns="http://www.w3.org/2000/svg">
<path d="M20.6914 17C13.6813 17 8 22.7164 8 29.7758C8 36.8352 13.6813 42.5516 20.6914 42.5516C27.7016 42.5516 33.3828 36.8352 33.3828 29.7758C33.3828 22.7164 27.7016 17 20.6914 17ZM40.9625 17.7453C37.4609 17.7453 34.6203 23.1312 34.6203 29.7758C34.6203 36.4203 37.4609 41.8062 40.9695 41.8062C44.4781 41.8062 47.3188 36.4203 47.3188 29.7758H47.3047C47.3047 23.1312 44.4641 17.7453 40.9625 17.7453ZM50.7711 18.9969C49.5406 18.9969 48.5422 23.8203 48.5422 29.7758C48.5422 35.7312 49.5406 40.5547 50.7711 40.5547C52.0016 40.5547 53 35.7242 53 29.7758C53 23.8273 52.0016 18.9969 50.7711 18.9969Z" fill="currentColor"/>
</svg>
