<svg width="current" height="current" viewBox="0 0 60 60" fill="none" xmlns="http://www.w3.org/2000/svg">
<path d="M23.0514 43.3286C23.0514 43.5101 22.8427 43.6552 22.5796 43.6552C22.2802 43.6825 22.0716 43.5373 22.0716 43.3286C22.0716 43.1472 22.2802 43.002 22.5433 43.002C22.8155 42.9748 23.0514 43.12 23.0514 43.3286ZM20.2298 42.9204C20.1663 43.1018 20.3478 43.3105 20.62 43.3649C20.8558 43.4556 21.128 43.3649 21.1825 43.1835C21.2369 43.002 21.0645 42.7933 20.7923 42.7117C20.5565 42.6482 20.2933 42.7389 20.2298 42.9204ZM24.2399 42.7661C23.9768 42.8296 23.7954 43.002 23.8226 43.2107C23.8498 43.3921 24.0857 43.5101 24.3579 43.4466C24.621 43.3831 24.8024 43.2107 24.7752 43.0292C24.748 42.8569 24.503 42.7389 24.2399 42.7661ZM30.2097 8C17.626 8 8 17.5534 8 30.1371C8 40.1986 14.3327 48.8085 23.378 51.8387C24.5393 52.0474 24.9476 51.3306 24.9476 50.7409C24.9476 50.1784 24.9204 47.0756 24.9204 45.1704C24.9204 45.1704 18.5696 46.5312 17.2359 42.4667C17.2359 42.4667 16.2016 39.8266 14.7137 39.1462C14.7137 39.1462 12.6361 37.7218 14.8589 37.749C14.8589 37.749 17.1179 37.9304 18.3609 40.0897C20.3478 43.5917 23.6774 42.5847 24.9748 41.9859C25.1835 40.5343 25.7732 39.5272 26.4264 38.9284C21.3548 38.3659 16.2379 37.631 16.2379 28.9032C16.2379 26.4083 16.9274 25.1562 18.379 23.5595C18.1431 22.9698 17.372 20.5383 18.6149 17.3992C20.5111 16.8095 24.875 19.8488 24.875 19.8488C26.6895 19.3407 28.6401 19.0776 30.5726 19.0776C32.505 19.0776 34.4556 19.3407 36.2702 19.8488C36.2702 19.8488 40.6341 16.8004 42.5302 17.3992C43.7732 20.5474 43.002 22.9698 42.7661 23.5595C44.2177 25.1653 45.1069 26.4173 45.1069 28.9032C45.1069 37.6583 39.7631 38.3569 34.6915 38.9284C35.5262 39.6452 36.2339 41.006 36.2339 43.1381C36.2339 46.1956 36.2067 49.9788 36.2067 50.7228C36.2067 51.3125 36.624 52.0292 37.7762 51.8206C46.8488 48.8085 53 40.1986 53 30.1371C53 17.5534 42.7933 8 30.2097 8ZM16.8185 39.2913C16.7006 39.3821 16.7278 39.5907 16.8821 39.7631C17.0272 39.9083 17.2359 39.9718 17.3538 39.8538C17.4718 39.7631 17.4446 39.5544 17.2903 39.3821C17.1452 39.2369 16.9365 39.1734 16.8185 39.2913ZM15.8387 38.5564C15.7752 38.6744 15.8659 38.8196 16.0474 38.9103C16.1925 39.001 16.374 38.9738 16.4375 38.8468C16.501 38.7288 16.4103 38.5837 16.2288 38.4929C16.0474 38.4385 15.9022 38.4657 15.8387 38.5564ZM18.7782 41.7863C18.6331 41.9042 18.6875 42.1764 18.8962 42.3488C19.1048 42.5575 19.3679 42.5847 19.4859 42.4395C19.6038 42.3216 19.5494 42.0494 19.3679 41.877C19.1683 41.6683 18.8962 41.6411 18.7782 41.7863ZM17.744 40.4526C17.5988 40.5433 17.5988 40.7792 17.744 40.9879C17.8891 41.1966 18.1341 41.2873 18.252 41.1966C18.3972 41.0786 18.3972 40.8427 18.252 40.6341C18.125 40.4254 17.8891 40.3347 17.744 40.4526Z" fill="currentColor"/>
</svg>
