<svg width="100%" height="100%" viewBox="0 0 642 658" version="1.1" xmlns="http://www.w3.org/2000/svg" xmlns:xlink="http://www.w3.org/1999/xlink" xml:space="preserve" xmlns:serif="http://www.serif.com/" style="fill-rule:evenodd;clip-rule:evenodd;stroke-linejoin:round;stroke-miterlimit:2;">
    <path d="M379.168,110.606L385.605,111.328C393.059,112.118 394.73,113.764 394.065,119.663C393.459,125.045 391.988,126.312 384.56,127.854C382.685,128.243 380.978,128.489 379.411,128.535L379.382,127.854C379.199,123.355 379.152,117.762 379.168,110.606Z" style="fill:rgb(254,220,189);"/>
    <path d="M443.462,117.01C444.945,113.109 444.476,109.214 442.285,107.231C439.229,104.465 422.953,104.093 415.354,106.615C404.549,110.201 403.357,112.308 408.184,119.291C411.338,123.854 413.277,124.5 424.34,124.675C430.644,124.774 432.673,124.364 437.197,122.075C440.375,120.467 442.934,118.399 443.462,117.01Z" style="fill:rgb(254,220,189);"/>
    <path d="M391.107,47.902C392.423,46.689 393.785,45.54 395.058,44.551C395.303,44.625 395.494,44.639 395.62,44.586L395.62,44.586C397.201,43.911 398.583,43.523 399.676,43.523C400.964,43.523 404.046,43.236 407.506,42.269C407.971,42.139 408.443,41.997 408.917,41.842C408.914,42.182 409.565,42.112 410.7,41.905C413.31,41.428 414.74,42.118 420.2,46.487C423.736,49.315 428.211,53.968 430.146,56.826C432.08,59.684 435.819,65.042 438.454,68.732C443.293,75.508 451.073,91.848 454.814,102.68L454.466,102.788C445.65,105.406 444.86,105.484 441.482,104.073C439.338,103.177 434.447,102.527 429.37,102.463C418.63,102.328 408.665,105.415 403.649,110.432C399.76,114.32 398.294,114.542 394.564,111.807C392.308,110.153 385.276,108.666 379.169,108.245L379.17,105.001C379.278,72.158 380.258,61.825 383.837,55.782L385.501,53.565L386.136,52.844L387.541,51.351L391.107,47.902Z" style="fill:rgb(254,220,189);"/>
    <path d="M379.411,128.535C372.618,128.991 368.55,126.525 365.334,120.462C362.99,116.043 362.975,115.869 364.764,113.892C366.742,111.706 373.297,109.89 377.354,110.403L379.168,110.606L379.165,116.426C379.203,119.413 379.241,122.401 379.278,125.389L379.411,128.535Z" style="fill:rgb(53,41,19);"/>
    <path d="M379.505,130.78C372.855,131.048 368.4,129.054 365.022,124.544C358.608,115.982 361.125,110.129 371.991,108.337C373.845,108.032 376.413,108.02 379.169,108.245L379.312,108.255C385.386,108.689 392.326,110.166 394.564,111.807C398.294,114.542 399.76,114.32 403.649,110.432C408.665,105.415 418.63,102.328 429.37,102.463C434.447,102.527 439.338,103.177 441.482,104.073C444.86,105.484 445.65,105.406 454.466,102.788L454.814,102.68C455.359,104.252 455.817,105.707 456.169,107.001L456.776,109.575L451.604,111.382C447.441,112.814 446.354,113.637 446.354,115.356C446.354,118.75 442.903,122.305 437.141,124.848C432.773,126.775 430.376,127.144 423.354,126.974C411.917,126.697 409.45,125.741 405.978,120.241C403.445,116.228 402.73,115.721 399.978,115.989C397.128,116.266 396.805,116.662 396.292,120.507C395.549,126.069 393.21,128.444 387.206,129.731C384.393,130.335 381.876,130.689 379.613,130.777L379.505,130.78ZM443.462,117.01C444.945,113.109 444.476,109.214 442.285,107.231C439.229,104.465 422.953,104.093 415.354,106.615C404.549,110.201 403.357,112.308 408.184,119.291C411.338,123.854 413.277,124.5 424.34,124.675C430.644,124.774 432.673,124.364 437.197,122.075C440.375,120.467 442.934,118.399 443.462,117.01ZM377.354,110.403C373.297,109.89 366.742,111.706 364.764,113.892C362.975,115.869 362.99,116.043 365.334,120.462C368.55,126.525 372.618,128.991 379.411,128.535L379.484,128.533C381.031,128.481 382.715,128.237 384.56,127.854C391.988,126.312 393.459,125.045 394.065,119.663C394.73,113.764 393.059,112.118 385.605,111.328L377.354,110.403Z" style="fill:rgb(186,58,19);"/>
    <path d="M395.071,44.552C396.532,43.382 393.964,45.288 391.107,47.902L388.452,50.382L387.541,51.351L386.928,51.943L386.136,52.844L385.676,53.332L385.501,53.565L385.094,54.029L383.837,55.782C380.258,61.825 379.278,72.158 379.17,105.001L379.169,108.245C376.413,108.02 373.845,108.032 371.991,108.337C361.125,110.129 358.608,115.982 365.022,124.544C368.4,129.054 372.855,131.048 379.505,130.78L379.554,131.936C380.199,142.34 381.87,145.802 385.906,151.669C387.766,154.373 390.233,158.438 391.388,160.702C393.431,164.707 398.394,171.03 404.852,177.856C406.598,179.701 409.829,183.976 412.033,187.356C415.083,192.034 416.449,194.784 420.04,196.5C423.107,197.965 428.719,199.483 430.04,201.5L430.66,202.628L430.795,203.032L430.977,203.714L431.045,204.285L431.11,206.152L431.107,206.143C431.013,205.966 429.558,205.791 427.77,205.408C425.258,204.87 424.378,205.08 423.897,206.334C422.902,208.926 416.488,211.647 402.274,215.507C394.985,217.487 387.896,219.32 386.521,219.581C385.046,219.86 383.111,220.349 380.976,220.967C378.287,215.041 375.685,208.805 373.541,202.977C367.136,185.558 363.64,170.939 358.489,140.023C355.889,124.414 355.89,94.174 358.491,83.07C362.402,66.377 367.515,53.263 374.644,42.426C379.488,35.064 385.262,28.753 392.223,23.084C396.4,19.476 401.35,16.264 406.519,13.348C411.889,10.319 418.454,7.654 425.166,5.318L427.911,4.519L428.993,4.176C434.711,2.259 439.939,1.329 445.708,0.595C448.692,0.216 452.453,-0.02 454.291,0.057C455.268,0.098 461.48,1.057 465.784,1.275C468.534,1.414 474.546,2.712 476.629,3.714C478.713,4.715 484.872,10.251 488.732,14.441C499.288,25.896 508.774,43.024 514.903,65.62C519.649,83.119 521.884,100.555 523.345,111.549C525.127,124.966 525.125,158.058 524.03,183.374C523.959,185.014 523.798,186.619 523.567,188.208C523.506,188.629 523.266,190.474 523.115,190.893C522.916,191.444 522.577,192.304 521.721,192.928C518.822,195.042 515.525,197.102 512.334,198.919C511.752,198.612 511.752,198.612 512.334,198.919C506.463,202.393 501.011,205.113 499.368,206.125C498.794,206.479 495.586,208.909 492.762,210.675C489.938,212.442 485.822,215.324 483.614,217.079C478.531,221.12 456.882,235.609 456.498,235.226C456.341,235.068 456.862,232.259 457.656,228.981C460.17,218.616 463.009,197.491 463.699,184.023C464.784,162.817 461.619,129.037 456.776,109.575L454.838,102.743L454.814,102.68C451.073,91.848 443.293,75.508 438.454,68.732C435.819,65.042 432.08,59.684 430.146,56.826C428.211,53.968 423.736,49.315 420.2,46.487C414.74,42.118 413.31,41.428 410.7,41.905C409.565,42.112 408.914,42.182 408.917,41.842C408.443,41.997 407.971,42.139 407.506,42.269C404.046,43.236 400.964,43.523 399.676,43.523C398.583,43.523 397.201,43.911 395.62,44.586L395.071,44.552Z" style="fill:rgb(53,41,19);"/>
    <path d="M516.026,196.702C517.435,197.352 518.98,198.387 520.595,199.943C524.062,203.282 528.275,206.72 529.959,207.583C531.643,208.446 534.821,210.375 537.021,211.869C540.644,214.33 559.279,222.362 575.224,228.335C583.744,231.527 600.844,242.475 602.613,245.871C605.799,251.987 614.173,271.673 618.353,282.871C626.275,304.097 626.935,307.051 637.007,366.371C639.744,382.488 641.513,400.001 641.518,411.026L641.521,418.681L636.891,421.394C634.345,422.886 630.801,425.098 629.016,426.31C624.024,429.698 612.119,433.67 600.521,435.817C596.318,436.595 592.636,437.078 588.29,437.34C588.24,437.529 589.504,432.798 589.504,432.798C587.448,432.857 585.39,432.916 583.334,432.868C579.888,432.788 576.445,432.597 573.004,432.414C556.262,431.526 537.274,429.952 520.436,430.532C516.977,440.954 517.343,452.838 512.947,462.896C511.581,466.023 506.17,467.787 503.455,468.808C491.606,473.263 479.909,478.165 467.852,482.02C441.393,490.48 398.144,501.596 370.8,506.556C363.652,507.853 356.364,508.435 349.06,508.965C350.311,509.98 345.521,505.85 345.521,505.396C345.521,504.677 346.626,503.811 347.976,503.472C349.326,503.133 351.644,501.266 353.126,499.323C355.765,495.862 355.838,495.379 356.674,475.58C357.079,465.974 357.74,445.947 358.231,428.083L358.475,419.871C358.747,409.709 359.083,399.327 359.466,389.027L359.022,389.305C356.201,390.49 344.717,388.66 340.113,386C337.61,384.554 331.361,379.705 326.226,375.225L323.859,373.071L323.585,372.824C317.869,367.682 315.315,364.425 311.333,357.725C299.515,337.84 299.236,336.213 306.01,326.685C308.48,323.212 311.742,318.198 313.26,315.541C314.779,312.885 318.306,307.26 321.1,303.041C326.563,294.79 339.105,270.44 346.04,254.621C351.043,243.209 358.554,230.777 362.161,227.939C363.915,226.56 373.638,223.048 380.976,220.967L386.521,219.581C387.896,219.32 394.985,217.487 402.274,215.507C409.731,213.482 415.041,211.771 418.542,210.211C421.726,208.828 423.424,207.566 423.897,206.334C424.378,205.08 425.258,204.87 427.77,205.408C429.558,205.791 431.013,205.966 431.107,206.143C431.955,207.749 430.715,210.553 428.517,215.169C418.963,235.232 418.918,243.833 430.894,247.389C438.143,249.542 441.361,249.259 452.254,245.509C476.073,237.309 501.404,221.31 510.612,208.65C513.955,204.055 515.12,202.326 515.179,200.743C515.199,200.204 513.118,199.748 511.893,199.166L512.334,198.919L516.026,196.702Z" style="fill:white;"/>
    <path d="M431.11,206.152L431.087,204.634L431.045,204.285L431.033,203.923L430.977,203.714L430.951,203.502L430.795,203.032L430.712,202.724L430.66,202.628C430.516,202.274 430.312,201.916 430.04,201.5C428.719,199.483 423.107,197.965 420.04,196.5C416.449,194.784 415.083,192.034 412.033,187.356C409.829,183.976 406.598,179.701 404.852,177.856C398.394,171.03 393.431,164.707 391.388,160.702C390.233,158.438 387.766,154.373 385.906,151.669C381.725,145.591 380.082,142.094 379.505,130.78C381.797,130.701 384.348,130.344 387.206,129.731C393.21,128.444 395.549,126.069 396.292,120.507C396.805,116.662 397.128,116.266 399.978,115.989C402.73,115.721 403.445,116.228 405.978,120.241C409.45,125.741 411.917,126.697 423.354,126.974C430.376,127.144 432.773,126.775 437.141,124.848C442.903,122.305 446.354,118.75 446.354,115.356C446.354,113.637 447.441,112.814 451.604,111.382L456.776,109.575C461.619,129.037 464.784,162.817 463.699,184.023C463.009,197.491 460.17,218.616 457.656,228.981C456.862,232.259 456.341,235.068 456.498,235.226C456.882,235.609 478.531,221.12 483.614,217.079C485.822,215.324 489.938,212.442 492.762,210.675C495.586,208.909 498.794,206.479 499.368,206.125C500.97,205.138 506.195,202.527 511.893,199.166C513.118,199.748 515.199,200.204 515.179,200.743C515.12,202.326 513.955,204.055 510.612,208.65C501.404,221.31 476.073,237.309 452.254,245.509C441.361,249.259 438.143,249.542 430.894,247.389C418.918,243.833 418.963,235.232 428.517,215.169C430.711,210.561 431.951,207.759 431.11,206.152Z" style="fill:rgb(254,220,189);"/>
    <path d="M394.409,551.496L419.04,563.5L420.04,564.901L420.04,571.569L419.04,574.5L338.344,616.75C292.933,639.438 255.303,658 254.721,658L249.389,653.677L249.385,653.675C248.639,653.35 213.446,630.3 171.057,602.375L93.832,551.5L48.204,471.5C23.109,427.5 1.875,390.059 1.017,388.298C-0.262,385.672 -0.312,384.818 0.742,383.548C1.449,382.697 3.496,382 5.293,382C7.494,382 31.063,392.575 77.64,414.462C115.635,432.316 148.562,447.814 150.812,448.9C161.344,453.989 169.91,463.79 174.933,476.5L181.907,491.518L181.886,491.547L183.234,494.415L198.913,527.779L200.087,530.278C207.818,515.439 215.785,504.608 223.175,498.903C227.776,495.35 230.306,494.024 231.742,494.41C232.864,494.711 234.373,494.964 235.098,494.971C235.822,494.979 234.116,497.223 231.307,499.959C225.118,505.988 223.281,510.07 223.281,517.798C223.281,522.312 223.724,524.076 225.19,525.403C226.994,527.036 227.281,527.036 230.411,525.418C232.233,524.476 236.211,521.347 239.252,518.466C242.293,515.584 247.256,511.996 250.281,510.493C264.968,503.193 268.516,500.262 272.065,491.252C273.583,492.144 274.648,492.866 275.061,493.279C275.923,494.141 292.468,502.346 315.727,513.5L314.74,513.742C300.534,517.85 288.468,527.896 277,536.586L244.25,563.244C241.796,565.799 239.533,568.646 238,571.84C237.673,572.522 238.519,574.094 239.2,573.766L240.25,577.093C235.076,584.631 241.429,590.614 249.261,587.664C256.415,584.969 263.253,581.498 270.25,578.415C271.833,577.718 276.328,575.215 275,576.324C269.099,581.25 259.821,583.4 256.78,590.459C254.305,596.202 266.315,599.641 269.992,598.439C289.789,591.969 303.54,574.97 323.646,569.24C324.481,569.002 323.017,570.914 322.404,571.528C320.878,573.055 318.927,574.1 317.334,575.557C312.281,580.179 307.094,584.688 302.481,589.75C300.612,591.8 292.648,602.449 302.24,602.051C316.815,601.447 325.959,588.225 337.386,581.352C348.244,574.822 360.862,571.652 371.907,565.445C383.719,558.807 382.825,556.337 394.409,551.496Z" style="fill:rgb(170,169,173);"/>
    <path d="M323.859,373.071L326.226,375.225C331.361,379.705 337.61,384.554 340.113,386C344.717,388.66 356.201,390.49 359.022,389.305L359.466,389.027C359.083,399.327 358.747,409.709 358.475,419.871L358.231,428.083C353.277,435.455 347.53,443.349 344.542,446.77C339.397,452.658 337.908,453.614 320.916,461.931C310.942,466.813 297.059,473.157 290.066,476.029C283.072,478.901 276.736,481.978 275.985,482.868C275.234,483.757 273.791,486.728 272.778,489.47C268.922,499.907 265.902,502.729 250.281,510.493C247.256,511.996 242.293,515.584 239.252,518.466C236.211,521.347 232.233,524.476 230.411,525.418C227.281,527.036 226.994,527.036 225.19,525.403C223.724,524.076 223.281,522.312 223.281,517.798C223.281,510.07 225.118,505.988 231.307,499.959C234.116,497.223 235.822,494.979 235.098,494.971C234.373,494.964 232.864,494.711 231.742,494.41C230.306,494.024 227.776,495.35 223.175,498.903C215.785,504.608 207.818,515.439 200.087,530.278L198.913,527.779L183.234,494.415L181.886,491.547C183.036,489.775 184.257,488.596 185.339,488.441C188.049,488.053 200.537,479.458 207.102,473.462L213.423,467.689L227.87,464.348C235.817,462.51 244.222,460.044 246.55,458.868C254.634,454.782 272.568,440.871 279.742,433.123C286.161,426.191 303.493,408.694 306.781,405.829C316.202,397.617 319.348,391.808 323.232,375.454L323.859,373.071Z" style="fill:rgb(254,220,189);"/>
    <g transform="matrix(1,0,0,1,0,1)">
        <path d="M520.436,430.532C537.274,429.952 556.262,431.526 573.004,432.414C576.445,432.597 579.888,432.788 583.334,432.868C585.39,432.916 587.448,432.857 589.504,432.798C589.504,432.798 583.545,455.126 580.499,466.272C575.889,483.144 573.247,501.28 559.731,513.75C555.358,517.785 546.598,521.414 541.235,523.28C507.686,534.951 473.735,541.574 438.495,545.558C425.075,547.075 408.902,545.633 395.916,550.845C382.729,556.138 384.212,558.53 371.907,565.445C360.862,571.652 348.244,574.822 337.386,581.352C325.959,588.225 316.815,601.447 302.24,602.051C292.648,602.449 300.612,591.8 302.481,589.75C307.094,584.688 312.281,580.179 317.334,575.557C318.927,574.1 320.878,573.055 322.404,571.528C323.017,570.914 324.481,569.002 323.646,569.24C303.54,574.97 289.789,591.969 269.992,598.439C266.315,599.641 254.305,596.202 256.78,590.459C259.821,583.4 269.099,581.25 275,576.324C276.328,575.215 271.833,577.718 270.25,578.415C263.253,581.498 256.415,584.969 249.261,587.664C241.429,590.614 235.076,584.631 240.25,577.093L239.2,573.766C238.519,574.094 237.673,572.522 238,571.84C239.533,568.646 241.796,565.799 244.25,563.244L277,536.586C288.468,527.896 300.534,517.85 314.74,513.742C332.916,508.485 352.324,509.908 370.8,506.556C398.144,501.596 441.393,490.48 467.852,482.02C479.909,478.165 491.606,473.263 503.455,468.808C506.17,467.787 511.581,466.023 512.947,462.896C517.343,452.838 516.977,440.954 520.436,430.532Z" style="fill:rgb(254,220,189);fill-rule:nonzero;"/>
    </g>
</svg>